<?xml version="1.0" encoding="UTF-8" standalone="no"?><!DOCTYPE svg PUBLIC "-//W3C//DTD SVG 1.1//EN" "http://www.w3.org/Graphics/SVG/1.1/DTD/svg11.dtd"><svg width="100%" height="100%" viewBox="0 0 23 23" version="1.1" xmlns="http://www.w3.org/2000/svg" xmlns:xlink="http://www.w3.org/1999/xlink" xml:space="preserve" xmlns:serif="http://www.serif.com/" style="fill-rule:evenodd;clip-rule:evenodd;stroke-linejoin:round;stroke-miterlimit:2;"><g id="CorelEMF" serif:id="CorelEMF"><path d="M22.06,11.077c-0,6.113 -4.94,11.073 -11.03,11.073c-6.09,-0 -11.03,-4.96 -11.03,-11.073c-0,-6.117 4.94,-11.077 11.03,-11.077c6.09,0 11.03,4.96 11.03,11.077Z" style="fill:#2762ee;fill-rule:nonzero;"/><path d="M14.339,3.403c-0.157,0.051 -0.333,0.105 -0.497,0.168c-0.231,0.043 -0.555,0.051 -0.739,0.203c-0.078,-0.133 -0.223,-0.101 -0.325,-0.043c-0.211,0.133 -0.657,0.122 -0.692,0.169c-0.051,0.07 0.055,0.207 0.098,0.266l0.004,0.262l0.043,0.086l-0.016,0.082c-0.211,0.297 -0.286,0.669 -0.309,1.028c-0.274,0.442 -0.309,0.622 -0.18,0.931c-0.113,0.278 -0.121,0.587 -0.133,0.88c-0.016,0.442 0.059,1.119 -0.293,1.436c-0.536,0.489 -1.631,0.739 -2.21,0.743c-0.317,0.008 -0.622,-0.074 -0.833,-0.356c-0.211,-0.286 -0.255,-0.649 0.004,-0.935c-1.115,0.168 -1.287,1.792 -0.411,2.468c-1.396,0.153 -2.711,1.072 -3.508,2.241c-0.169,0.231 -0.282,0.47 -0.435,0.712c-0.375,0.567 -0.833,0.915 -1.216,0.947c-0.379,0.035 -0.688,-0.247 -0.688,-0.751c-0,-0.329 0.191,-0.775 0.422,-1.209c0.454,-0.872 0.86,-1.345 1.048,-2.374c0.121,-0.673 0.082,-1.377 -0.289,-1.944c-0.333,-0.508 -1.131,-0.899 -1.745,-0.837c-0.371,0.047 -0.809,0.344 -0.751,0.775c0.012,0.074 0.032,0.16 0.094,0.211c0.094,0.07 0.231,0.101 0.384,0.09c0.125,-0.004 0.246,-0.059 0.336,-0.098c0.137,-0.059 0.27,-0.125 0.454,-0.02c0.833,0.466 0.778,1.455 0.403,2.234c-0.149,0.328 -0.356,0.665 -0.552,1.013c-0.372,0.665 -0.778,1.494 -0.798,2.276c-0.012,0.446 0.117,0.841 0.469,1.15c0.286,0.25 0.493,0.333 0.865,0.364c0.919,0.078 1.752,-0.34 2.3,-1.048c0.32,0.512 0.582,0.731 1.134,0.985c0.07,0.059 0.07,0.114 0.066,0.161c-0.003,0.097 -0.113,0.176 -0.234,0.23c-0.497,0.266 -1.357,0.732 -1.885,0.755c-0.223,0.039 -0.278,0.032 -0.439,0.196c-0.262,0.254 -0.07,0.324 -0.011,0.614l0.066,0.798c0.032,0.27 0.075,0.618 0.333,0.731c0.125,0.055 0.109,0.067 0.133,0.196c0.043,0.219 0.14,0.403 0.403,0.407c0.195,-0 0.379,0.011 0.524,0.16c0.234,0.019 0.633,0.062 0.841,-0.067c0.074,-0.047 0.105,-0.129 0.058,-0.281c-0.023,-0.086 -0.086,-0.157 -0.152,-0.239c-0.086,-0.105 -0.192,-0.231 -0.313,-0.238c-0.301,-0.036 -0.227,0.019 -0.434,-0.231c-0.2,-0.196 -0.27,-0.45 -0.286,-0.728c0.157,-0.133 0.086,-0.058 0.121,-0.238c0.02,-0.125 0.094,-0.196 0.259,-0.208c0.833,-0.074 1.58,-0.531 2.327,-0.88c0.121,-0.062 0.176,-0.015 0.16,0.071c-0.012,0.066 -0.039,0.051 -0.043,0.148c-0.004,0.067 0,0.153 -0.004,0.208c-0.039,0.34 -0.098,0.547 0.34,0.602c0.454,0.063 0.482,0.102 0.99,0.379c0.231,0.126 0.383,0.153 0.579,-0.015c0.082,-0.043 0.203,-0.008 0.325,0.023c0.105,0.032 0.211,0.063 0.285,0.043c0.067,-0.019 0.113,-0.105 0.227,-0.152c0.152,-0.067 0.321,-0.055 0.391,0.062c0.074,0.079 0.059,-0.027 0.07,-0.043c0.122,-0.195 0.372,-0.199 0.517,-0.328c0.07,-0.063 0.062,-0.11 0.054,-0.164c-0.003,-0.071 -0.035,-0.149 -0.187,-0.212c-0.114,-0.051 -0.11,-0.054 -0.165,-0.219c-0.097,-0.285 -0.399,-0.156 -0.727,-0.019c-0.305,0.117 -0.548,0.184 -0.888,0.054c-0.45,-0.164 -0.704,-0.438 -0.352,-0.946c0.2,-0.289 0.352,-0.52 0.313,-0.919c-0.047,-0.56 -0.243,-1.369 -0.684,-1.565c-0.012,-0.227 0.074,-0.356 -0.161,-0.461c2.836,-0 3.99,0.152 5.855,-0.826c0.215,-0.109 0.36,-0.187 0.552,-0.34c0.086,-0.078 0.125,-0.051 0.215,0.118c0.215,0.43 0.512,0.25 0.903,-0.047c0.165,0.004 0.255,-0.036 0.411,-0.086c0.293,-0.098 0.52,-0.196 0.794,-0.333c0.18,-0.082 0.239,-0.082 0.434,-0.121c0.352,-0.059 0.634,-0.114 1.029,-0.258c0.469,-0.176 1.06,-0.388 1.459,-0.431c0.324,0.047 0.481,0.083 0.7,-0.207c0.137,-0.18 0.297,-0.379 0.501,-0.364c0.172,0.067 0.242,-0.066 0.211,-0.226l0.066,-0.055c0.133,-0.082 0.129,-0.082 0.274,-0.024c0.313,-0.195 0.333,-0.07 0.333,-0.492c-0.079,-0.513 -0.208,-1.01 -0.306,-1.51c-0.23,-0.059 -0.273,0.223 -0.285,0.379c-0.121,0.192 -0.129,0.239 -0.309,0.403c-0.297,0.055 -0.352,0.125 -0.309,0.438c-0.153,0.231 -0.329,0.36 -0.544,0.458c-0.25,0.109 -0.422,0.129 -0.688,0.164c-0.356,0.035 -0.704,0.063 -0.931,0.18c-0.07,0.035 -0.07,-0.02 -0.109,-0.067c-0.051,-0.082 -0.27,-0.05 -0.446,-0.05l-0.481,-0.004l-0.247,-0.016c0.368,-0.415 0.833,-0.638 1.236,-1.072c0.114,-0.144 0.219,-0.324 0.313,-0.524c0.086,-0.203 0.156,-0.332 0.289,-0.5c0.051,-0.059 0.11,-0.114 0.196,-0.204c0.192,-0.195 0.278,-0.285 0.262,-0.63c0.004,-0.125 0.047,-0.176 0.164,-0.215c0.302,-0.086 0.219,-0.195 0.305,-0.449c0.302,-0.176 0.352,-0.36 0.251,-0.677c-0.141,-0.399 -0.38,-0.841 -0.575,-1.193l-0.059,-0.11c-0.36,0.219 -0.199,0.274 -0.297,0.474c-0.098,0.199 -0.638,0.262 -0.501,0.641c0.035,0.09 0.078,0.16 -0.015,0.25c-0.356,0.341 0.246,0.423 -0.161,0.732l-0.055,0.109l-0.097,0.059l0.011,0.141l0.02,0.113c-0.172,-0.027 -0.211,0.333 -0.438,0.474c-0.481,0.262 -0.673,0.477 -1.06,0.86c-0.145,0.145 -0.305,0.258 -0.524,0.25c-0.266,-0.023 -0.188,0.043 -0.442,0.157c-0.254,0.117 -0.38,0.117 -0.481,-0.071c-0.227,-0.418 -0.219,-0.262 -0.552,-0.551l0.004,-0.098c0.059,-0.078 0.043,-0.242 -0.058,-0.297c-0.016,-0.031 -0.028,-0.074 -0.04,-0.114c-0.113,-0.344 -0.16,-0.688 -0.226,-1.044c-0.004,-0.258 0.125,-0.27 0.129,-0.489c0.011,-0.168 0.093,-0.297 0.324,-0.328c0.254,0.047 0.423,0.027 0.505,-0.082c0.062,-0.094 0.058,-0.302 0.019,-0.435c-0.023,-0.121 -0.117,-0.082 -0.203,-0.039c-0,-0.051 0.012,-0.121 -0.039,-0.137c-0.016,0.083 -0.031,0.11 -0.047,0.169c-0.086,0.07 -0.207,0.105 -0.305,0.136c-0.145,0.043 -0.2,-0.082 -0.231,-0.211c-0.078,-0.32 0.317,-0.336 0.528,-0.375c0.055,0.027 0.055,0.156 0.055,0.227c0.059,-0.063 0.066,-0.172 0.066,-0.243c0.098,-0.07 0.172,-0.121 0.188,-0.25c0.012,-0.075 0.016,-0.141 0.012,-0.192c-0.012,-0.148 -0.043,-0.199 -0.114,-0.297c0.059,-0.067 0.09,-0.157 0.09,-0.227c-0.004,-0.149 -0.121,-0.301 -0.301,-0.203c-0.461,0.117 -0.602,-0.047 -0.903,-0.055l-0.012,-0c-0.047,-0 -0.121,0.031 -0.168,0.047Z" style="fill:none;"/><clipPath id="_clip1"><path d="M14.339,3.403c-0.157,0.051 -0.333,0.105 -0.497,0.168c-0.231,0.043 -0.555,0.051 -0.739,0.203c-0.078,-0.133 -0.223,-0.101 -0.325,-0.043c-0.211,0.133 -0.657,0.122 -0.692,0.169c-0.051,0.07 0.055,0.207 0.098,0.266l0.004,0.262l0.043,0.086l-0.016,0.082c-0.211,0.297 -0.286,0.669 -0.309,1.028c-0.274,0.442 -0.309,0.622 -0.18,0.931c-0.113,0.278 -0.121,0.587 -0.133,0.88c-0.016,0.442 0.059,1.119 -0.293,1.436c-0.536,0.489 -1.631,0.739 -2.21,0.743c-0.317,0.008 -0.622,-0.074 -0.833,-0.356c-0.211,-0.286 -0.255,-0.649 0.004,-0.935c-1.115,0.168 -1.287,1.792 -0.411,2.468c-1.396,0.153 -2.711,1.072 -3.508,2.241c-0.169,0.231 -0.282,0.47 -0.435,0.712c-0.375,0.567 -0.833,0.915 -1.216,0.947c-0.379,0.035 -0.688,-0.247 -0.688,-0.751c-0,-0.329 0.191,-0.775 0.422,-1.209c0.454,-0.872 0.86,-1.345 1.048,-2.374c0.121,-0.673 0.082,-1.377 -0.289,-1.944c-0.333,-0.508 -1.131,-0.899 -1.745,-0.837c-0.371,0.047 -0.809,0.344 -0.751,0.775c0.012,0.074 0.032,0.16 0.094,0.211c0.094,0.07 0.231,0.101 0.384,0.09c0.125,-0.004 0.246,-0.059 0.336,-0.098c0.137,-0.059 0.27,-0.125 0.454,-0.02c0.833,0.466 0.778,1.455 0.403,2.234c-0.149,0.328 -0.356,0.665 -0.552,1.013c-0.372,0.665 -0.778,1.494 -0.798,2.276c-0.012,0.446 0.117,0.841 0.469,1.15c0.286,0.25 0.493,0.333 0.865,0.364c0.919,0.078 1.752,-0.34 2.3,-1.048c0.32,0.512 0.582,0.731 1.134,0.985c0.07,0.059 0.07,0.114 0.066,0.161c-0.003,0.097 -0.113,0.176 -0.234,0.23c-0.497,0.266 -1.357,0.732 -1.885,0.755c-0.223,0.039 -0.278,0.032 -0.439,0.196c-0.262,0.254 -0.07,0.324 -0.011,0.614l0.066,0.798c0.032,0.27 0.075,0.618 0.333,0.731c0.125,0.055 0.109,0.067 0.133,0.196c0.043,0.219 0.14,0.403 0.403,0.407c0.195,-0 0.379,0.011 0.524,0.16c0.234,0.019 0.633,0.062 0.841,-0.067c0.074,-0.047 0.105,-0.129 0.058,-0.281c-0.023,-0.086 -0.086,-0.157 -0.152,-0.239c-0.086,-0.105 -0.192,-0.231 -0.313,-0.238c-0.301,-0.036 -0.227,0.019 -0.434,-0.231c-0.2,-0.196 -0.27,-0.45 -0.286,-0.728c0.157,-0.133 0.086,-0.058 0.121,-0.238c0.02,-0.125 0.094,-0.196 0.259,-0.208c0.833,-0.074 1.58,-0.531 2.327,-0.88c0.121,-0.062 0.176,-0.015 0.16,0.071c-0.012,0.066 -0.039,0.051 -0.043,0.148c-0.004,0.067 0,0.153 -0.004,0.208c-0.039,0.34 -0.098,0.547 0.34,0.602c0.454,0.063 0.482,0.102 0.99,0.379c0.231,0.126 0.383,0.153 0.579,-0.015c0.082,-0.043 0.203,-0.008 0.325,0.023c0.105,0.032 0.211,0.063 0.285,0.043c0.067,-0.019 0.113,-0.105 0.227,-0.152c0.152,-0.067 0.321,-0.055 0.391,0.062c0.074,0.079 0.059,-0.027 0.07,-0.043c0.122,-0.195 0.372,-0.199 0.517,-0.328c0.07,-0.063 0.062,-0.11 0.054,-0.164c-0.003,-0.071 -0.035,-0.149 -0.187,-0.212c-0.114,-0.051 -0.11,-0.054 -0.165,-0.219c-0.097,-0.285 -0.399,-0.156 -0.727,-0.019c-0.305,0.117 -0.548,0.184 -0.888,0.054c-0.45,-0.164 -0.704,-0.438 -0.352,-0.946c0.2,-0.289 0.352,-0.52 0.313,-0.919c-0.047,-0.56 -0.243,-1.369 -0.684,-1.565c-0.012,-0.227 0.074,-0.356 -0.161,-0.461c2.836,-0 3.99,0.152 5.855,-0.826c0.215,-0.109 0.36,-0.187 0.552,-0.34c0.086,-0.078 0.125,-0.051 0.215,0.118c0.215,0.43 0.512,0.25 0.903,-0.047c0.165,0.004 0.255,-0.036 0.411,-0.086c0.293,-0.098 0.52,-0.196 0.794,-0.333c0.18,-0.082 0.239,-0.082 0.434,-0.121c0.352,-0.059 0.634,-0.114 1.029,-0.258c0.469,-0.176 1.06,-0.388 1.459,-0.431c0.324,0.047 0.481,0.083 0.7,-0.207c0.137,-0.18 0.297,-0.379 0.501,-0.364c0.172,0.067 0.242,-0.066 0.211,-0.226l0.066,-0.055c0.133,-0.082 0.129,-0.082 0.274,-0.024c0.313,-0.195 0.333,-0.07 0.333,-0.492c-0.079,-0.513 -0.208,-1.01 -0.306,-1.51c-0.23,-0.059 -0.273,0.223 -0.285,0.379c-0.121,0.192 -0.129,0.239 -0.309,0.403c-0.297,0.055 -0.352,0.125 -0.309,0.438c-0.153,0.231 -0.329,0.36 -0.544,0.458c-0.25,0.109 -0.422,0.129 -0.688,0.164c-0.356,0.035 -0.704,0.063 -0.931,0.18c-0.07,0.035 -0.07,-0.02 -0.109,-0.067c-0.051,-0.082 -0.27,-0.05 -0.446,-0.05l-0.481,-0.004l-0.247,-0.016c0.368,-0.415 0.833,-0.638 1.236,-1.072c0.114,-0.144 0.219,-0.324 0.313,-0.524c0.086,-0.203 0.156,-0.332 0.289,-0.5c0.051,-0.059 0.11,-0.114 0.196,-0.204c0.192,-0.195 0.278,-0.285 0.262,-0.63c0.004,-0.125 0.047,-0.176 0.164,-0.215c0.302,-0.086 0.219,-0.195 0.305,-0.449c0.302,-0.176 0.352,-0.36 0.251,-0.677c-0.141,-0.399 -0.38,-0.841 -0.575,-1.193l-0.059,-0.11c-0.36,0.219 -0.199,0.274 -0.297,0.474c-0.098,0.199 -0.638,0.262 -0.501,0.641c0.035,0.09 0.078,0.16 -0.015,0.25c-0.356,0.341 0.246,0.423 -0.161,0.732l-0.055,0.109l-0.097,0.059l0.011,0.141l0.02,0.113c-0.172,-0.027 -0.211,0.333 -0.438,0.474c-0.481,0.262 -0.673,0.477 -1.06,0.86c-0.145,0.145 -0.305,0.258 -0.524,0.25c-0.266,-0.023 -0.188,0.043 -0.442,0.157c-0.254,0.117 -0.38,0.117 -0.481,-0.071c-0.227,-0.418 -0.219,-0.262 -0.552,-0.551l0.004,-0.098c0.059,-0.078 0.043,-0.242 -0.058,-0.297c-0.016,-0.031 -0.028,-0.074 -0.04,-0.114c-0.113,-0.344 -0.16,-0.688 -0.226,-1.044c-0.004,-0.258 0.125,-0.27 0.129,-0.489c0.011,-0.168 0.093,-0.297 0.324,-0.328c0.254,0.047 0.423,0.027 0.505,-0.082c0.062,-0.094 0.058,-0.302 0.019,-0.435c-0.023,-0.121 -0.117,-0.082 -0.203,-0.039c-0,-0.051 0.012,-0.121 -0.039,-0.137c-0.016,0.083 -0.031,0.11 -0.047,0.169c-0.086,0.07 -0.207,0.105 -0.305,0.136c-0.145,0.043 -0.2,-0.082 -0.231,-0.211c-0.078,-0.32 0.317,-0.336 0.528,-0.375c0.055,0.027 0.055,0.156 0.055,0.227c0.059,-0.063 0.066,-0.172 0.066,-0.243c0.098,-0.07 0.172,-0.121 0.188,-0.25c0.012,-0.075 0.016,-0.141 0.012,-0.192c-0.012,-0.148 -0.043,-0.199 -0.114,-0.297c0.059,-0.067 0.09,-0.157 0.09,-0.227c-0.004,-0.149 -0.121,-0.301 -0.301,-0.203c-0.461,0.117 -0.602,-0.047 -0.903,-0.055l-0.012,-0c-0.047,-0 -0.121,0.031 -0.168,0.047Z"/></clipPath><g clip-path="url(#_clip1)"><path d="M9.747,24.457l-0.102,-0.09l14.01,-16.713l0.102,0.086l-14.01,16.717Z" style="fill:#dfbb5e;"/><path d="M9.68,24.402l-0.113,-0.097l14.01,-16.713l0.118,0.094l-14.015,16.716Z" style="fill:#deba5e;"/><path d="M9.606,24.336l-0.117,-0.098l14.014,-16.713l0.113,0.098l-14.01,16.713Z" style="fill:#ddba5d;"/><path d="M9.528,24.273l-0.117,-0.097l14.014,-16.713l0.113,0.094l-14.01,16.716Z" style="fill:#ddb95c;"/><path d="M9.45,24.207l-0.114,-0.098l14.01,-16.713l0.118,0.098l-14.014,16.713Z" style="fill:#dcb85c;"/><path d="M9.375,24.144l-0.117,-0.097l14.01,-16.717l0.118,0.098l-14.011,16.716Z" style="fill:#dcb75b;"/><path d="M9.297,24.078l-0.117,-0.098l14.014,-16.713l0.113,0.098l-14.01,16.713Z" style="fill:#dbb75a;"/><path d="M9.219,24.015l-0.114,-0.098l14.011,-16.716l0.117,0.097l-14.014,16.717Z" style="fill:#dbb65a;"/><path d="M9.141,23.949l-0.114,-0.098l14.01,-16.713l0.118,0.098l-14.014,16.713Z" style="fill:#dab559;"/><path d="M9.066,23.882l-0.117,-0.094l14.014,-16.716l0.114,0.097l-14.011,16.713Z" style="fill:#dab458;"/><path d="M8.988,23.82l-0.117,-0.098l14.014,-16.713l0.113,0.098l-14.01,16.713Z" style="fill:#d9b458;"/><path d="M8.91,23.753l-0.114,-0.094l14.011,-16.716l0.117,0.097l-14.014,16.713Z" style="fill:#d9b357;"/><path d="M8.836,23.691l-0.118,-0.098l14.01,-16.713l0.118,0.098l-14.01,16.713Z" style="fill:#d8b256;"/><path d="M8.757,23.624l-0.117,-0.094l14.014,-16.717l0.114,0.098l-14.011,16.713Z" style="fill:#d8b156;"/><path d="M8.679,23.562l-0.117,-0.098l14.014,-16.713l0.117,0.094l-14.014,16.717Z" style="fill:#d7b155;"/><path d="M8.601,23.495l-0.114,-0.098l14.011,-16.713l0.117,0.098l-14.014,16.713Z" style="fill:#d7b054;"/><path d="M8.527,23.432l-0.118,-0.097l14.014,-16.713l0.114,0.094l-14.01,16.716Z" style="fill:#d6af54;"/><path d="M8.448,23.366l-0.117,-0.098l14.014,-16.713l0.114,0.098l-14.011,16.713Z" style="fill:#d6ae53;"/><path d="M8.37,23.303l-0.113,-0.097l14.01,-16.713l0.117,0.094l-14.014,16.716Z" style="fill:#d5ae52;"/><path d="M8.292,23.237l-0.114,-0.098l14.011,-16.713l0.117,0.098l-14.014,16.713Z" style="fill:#d5ad52;"/><path d="M8.218,23.174l-0.118,-0.097l14.014,-16.717l0.114,0.098l-14.01,16.716Z" style="fill:#d4ac51;"/><path d="M8.139,23.108l-0.117,-0.098l14.014,-16.713l0.114,0.098l-14.011,16.713Z" style="fill:#d3ab50;"/><path d="M8.061,23.045l-0.113,-0.098l14.01,-16.716l0.117,0.097l-14.014,16.717Z" style="fill:#d3ab50;"/><path d="M7.987,22.979l-0.117,-0.098l14.01,-16.713l0.117,0.098l-14.01,16.713Z" style="fill:#d2aa4f;"/><path d="M7.909,22.912l-0.118,-0.094l14.014,-16.716l0.114,0.097l-14.01,16.713Z" style="fill:#d2a94e;"/><path d="M7.83,22.85l-0.113,-0.098l14.01,-16.713l0.118,0.098l-14.015,16.713Z" style="fill:#d1a84e;"/><path d="M7.752,22.783l-0.113,-0.094l14.01,-16.716l0.117,0.097l-14.014,16.713Z" style="fill:#d1a84d;"/><path d="M7.678,22.721l-0.117,-0.098l14.014,-16.713l0.113,0.098l-14.01,16.713Z" style="fill:#d0a74c;"/><path d="M7.6,22.654l-0.118,-0.094l14.014,-16.717l0.114,0.098l-14.01,16.713Z" style="fill:#d0a64c;"/><path d="M7.521,22.592l-0.113,-0.098l14.01,-16.713l0.118,0.094l-14.015,16.717Z" style="fill:#cfa54b;"/><path d="M7.447,22.525l-0.117,-0.098l14.01,-16.713l0.117,0.098l-14.01,16.713Z" style="fill:#cfa54a;"/><path d="M7.369,22.462l-0.117,-0.097l14.014,-16.713l0.113,0.094l-14.01,16.716Z" style="fill:#cea44a;"/><path d="M7.291,22.396l-0.118,-0.098l14.014,-16.713l0.118,0.098l-14.014,16.713Z" style="fill:#cea349;"/><path d="M7.212,22.333l-0.113,-0.097l14.01,-16.713l0.118,0.094l-14.015,16.716Z" style="fill:#cda248;"/><path d="M7.138,22.267l-0.117,-0.098l14.014,-16.713l0.113,0.098l-14.01,16.713Z" style="fill:#cda248;"/><path d="M7.06,22.204l-0.117,-0.097l14.014,-16.717l0.113,0.098l-14.01,16.716Z" style="fill:#cca147;"/><path d="M6.982,22.138l-0.114,-0.098l14.01,-16.713l0.118,0.098l-14.014,16.713Z" style="fill:#cca046;"/><path d="M6.903,22.075l-0.113,-0.097l14.01,-16.717l0.118,0.097l-14.015,16.717Z" style="fill:#cb9f46;"/><path d="M6.829,22.009l-0.117,-0.098l14.014,-16.713l0.113,0.098l-14.01,16.713Z" style="fill:#ca9f45;"/><path d="M6.751,21.942l-0.117,-0.094l14.014,-16.716l0.117,0.097l-14.014,16.713Z" style="fill:#ca9e44;"/><path d="M6.673,21.88l-0.114,-0.098l14.01,-16.713l0.118,0.098l-14.014,16.713Z" style="fill:#c99d44;"/><path d="M6.598,21.813l-0.117,-0.094l14.01,-16.716l0.118,0.097l-14.011,16.713Z" style="fill:#c99c43;"/><path d="M6.52,21.751l-0.117,-0.098l14.014,-16.713l0.113,0.098l-14.01,16.713Z" style="fill:#c89c42;"/><path d="M6.442,21.684l-0.114,-0.094l14.011,-16.717l0.117,0.098l-14.014,16.713Z" style="fill:#c89b42;"/><path d="M6.364,21.622l-0.114,-0.098l14.01,-16.713l0.118,0.094l-14.014,16.717Z" style="fill:#c79a41;"/><path d="M6.289,21.555l-0.117,-0.098l14.014,-16.713l0.114,0.098l-14.011,16.713Z" style="fill:#c79940;"/><path d="M6.211,21.493l-0.117,-0.098l14.014,-16.713l0.113,0.094l-14.01,16.717Z" style="fill:#c69940;"/><path d="M6.133,21.426l-0.114,-0.098l14.011,-16.713l0.117,0.098l-14.014,16.713Z" style="fill:#c6983f;"/><path d="M6.059,21.363l-0.118,-0.097l14.01,-16.713l0.118,0.094l-14.01,16.716Z" style="fill:#c5973e;"/><path d="M5.98,21.297l-0.117,-0.098l14.014,-16.713l0.114,0.098l-14.011,16.713Z" style="fill:#c5963e;"/><path d="M5.902,21.234l-0.113,-0.097l14.01,-16.717l0.117,0.098l-14.014,16.716Z" style="fill:#c4963d;"/><path d="M5.824,21.168l-0.114,-0.098l14.011,-16.713l0.117,0.098l-14.014,16.713Z" style="fill:#c4953c;"/><path d="M5.75,21.105l-0.118,-0.097l14.014,-16.717l0.114,0.097l-14.01,16.717Z" style="fill:#c3943c;"/><path d="M5.671,21.039l-0.117,-0.098l14.014,-16.713l0.114,0.098l-14.011,16.713Z" style="fill:#c3933b;"/><path d="M5.593,20.972l-0.113,-0.094l14.01,-16.716l0.117,0.097l-14.014,16.713Z" style="fill:#c2933a;"/><path d="M5.515,20.91l-0.114,-0.098l14.011,-16.713l0.117,0.098l-14.014,16.713Z" style="fill:#c1923a;"/><path d="M5.441,20.843l-0.118,-0.094l14.014,-16.716l0.114,0.097l-14.01,16.713Z" style="fill:#c19139;"/><path d="M5.362,20.781l-0.117,-0.098l14.014,-16.713l0.117,0.098l-14.014,16.713Z" style="fill:#c09038;"/><path d="M5.284,20.714l-0.113,-0.094l14.01,-16.717l0.117,0.098l-14.014,16.713Z" style="fill:#c09038;"/><path d="M5.21,20.652l-0.118,-0.098l14.011,-16.713l0.117,0.094l-14.01,16.717Z" style="fill:#bf8f37;"/><path d="M5.132,20.585l-0.118,-0.098l14.014,-16.713l0.114,0.098l-14.01,16.713Z" style="fill:#bf8e36;"/><path d="M5.053,20.523l-0.113,-0.098l14.01,-16.713l0.118,0.094l-14.015,16.717Z" style="fill:#be8d36;"/><path d="M4.975,20.456l-0.113,-0.098l14.01,-16.713l0.117,0.098l-14.014,16.713Z" style="fill:#be8d35;"/><path d="M4.901,20.393l-0.118,-0.097l14.015,-16.713l0.113,0.094l-14.01,16.716Z" style="fill:#bd8c34;"/><path d="M4.823,20.327l-0.118,-0.098l14.014,-16.713l0.114,0.098l-14.01,16.713Z" style="fill:#bd8b34;"/><path d="M4.744,20.264l-0.113,-0.097l14.01,-16.717l0.118,0.098l-14.015,16.716Z" style="fill:#bc8a33;"/><path d="M4.67,20.198l-0.117,-0.098l14.01,-16.713l0.117,0.098l-14.01,16.713Z" style="fill:#bc8a32;"/><path d="M4.592,20.135l-0.117,-0.097l14.014,-16.717l0.113,0.097l-14.01,16.717Z" style="fill:#bb8932;"/><path d="M4.514,20.069l-0.114,-0.098l14.01,-16.713l0.118,0.098l-14.014,16.713Z" style="fill:#bb8831;"/><path d="M4.435,20.002l-0.113,-0.094l14.01,-16.716l0.118,0.097l-14.015,16.713Z" style="fill:#ba8730;"/><path d="M4.361,19.94l-0.117,-0.098l14.014,-16.713l0.113,0.098l-14.01,16.713Z" style="fill:#ba8730;"/><path d="M4.283,19.873l-0.117,-0.094l14.014,-16.716l0.113,0.097l-14.01,16.713Z" style="fill:#b9862f;"/><path d="M4.205,19.811l-0.114,-0.098l14.01,-16.713l0.118,0.098l-14.014,16.713Z" style="fill:#b9852e;"/><path d="M4.126,19.744l-0.113,-0.094l14.01,-16.717l0.118,0.098l-14.015,16.713Z" style="fill:#b8842e;"/><path d="M4.052,19.682l-0.117,-0.098l14.014,-16.713l0.113,0.094l-14.01,16.717Z" style="fill:#b7832d;"/><path d="M3.974,19.615l-0.117,-0.098l14.014,-16.713l0.117,0.098l-14.014,16.713Z" style="fill:#b7832c;"/><path d="M3.896,19.553l-0.114,-0.098l14.01,-16.713l0.118,0.094l-14.014,16.717Z" style="fill:#b6822c;"/><path d="M3.821,19.486l-0.117,-0.098l14.01,-16.713l0.118,0.098l-14.011,16.713Z" style="fill:#b6812b;"/><path d="M3.743,19.423l-0.117,-0.097l14.014,-16.713l0.113,0.094l-14.01,16.716Z" style="fill:#b5802a;"/><path d="M3.665,19.357l-0.114,-0.098l14.011,-16.713l0.117,0.098l-14.014,16.713Z" style="fill:#b5812b;"/><path d="M3.587,19.294l-0.114,-0.097l14.01,-16.717l0.118,0.098l-14.014,16.716Z" style="fill:#b7822c;"/><path d="M3.512,19.228l-0.117,-0.098l14.014,-16.713l0.114,0.098l-14.011,16.713Z" style="fill:#b8842e;"/><path d="M3.434,19.165l-0.117,-0.097l14.014,-16.717l0.113,0.097l-14.01,16.717Z" style="fill:#b9862f;"/><path d="M3.356,19.099l-0.114,-0.098l14.011,-16.713l0.117,0.098l-14.014,16.713Z" style="fill:#ba8831;"/><path d="M3.282,19.032l-0.118,-0.094l14.01,-16.716l0.118,0.097l-14.01,16.713Z" style="fill:#bc8932;"/><path d="M3.203,18.97l-0.117,-0.098l14.014,-16.713l0.114,0.098l-14.011,16.713Z" style="fill:#bd8b34;"/><path d="M3.125,18.903l-0.113,-0.094l14.01,-16.716l0.117,0.097l-14.014,16.713Z" style="fill:#be8d35;"/><path d="M3.047,18.841l-0.114,-0.098l14.011,-16.713l0.117,0.098l-14.014,16.713Z" style="fill:#bf8f37;"/><path d="M2.973,18.774l-0.118,-0.094l14.014,-16.717l0.114,0.098l-14.01,16.713Z" style="fill:#c19038;"/><path d="M2.894,18.712l-0.117,-0.098l14.014,-16.713l0.114,0.094l-14.011,16.717Z" style="fill:#c2923a;"/><path d="M2.816,18.645l-0.113,-0.098l14.01,-16.713l0.117,0.098l-14.014,16.713Z" style="fill:#c3943c;"/><path d="M2.738,18.583l-0.114,-0.098l14.011,-16.713l0.117,0.094l-14.014,16.717Z" style="fill:#c4963d;"/><path d="M2.664,18.516l-0.118,-0.098l14.014,-16.713l0.114,0.098l-14.01,16.713Z" style="fill:#c5973f;"/><path d="M2.585,18.453l-0.117,-0.097l14.014,-16.713l0.117,0.094l-14.014,16.716Z" style="fill:#c79940;"/><path d="M2.507,18.387l-0.113,-0.098l14.01,-16.713l0.117,0.098l-14.014,16.713Z" style="fill:#c89b42;"/><path d="M2.433,18.324l-0.118,-0.097l14.011,-16.717l0.117,0.098l-14.01,16.716Z" style="fill:#c99d43;"/><path d="M2.355,18.258l-0.118,-0.098l14.014,-16.713l0.114,0.098l-14.01,16.713Z" style="fill:#ca9e45;"/><path d="M2.276,18.195l-0.113,-0.097l14.01,-16.717l0.117,0.097l-14.014,16.717Z" style="fill:#cca046;"/><path d="M2.198,18.129l-0.113,-0.098l14.01,-16.713l0.117,0.098l-14.014,16.713Z" style="fill:#cda248;"/><path d="M2.124,18.062l-0.118,-0.094l14.015,-16.716l0.113,0.097l-14.01,16.713Z" style="fill:#cea44a;"/><path d="M2.046,18l-0.118,-0.098l14.014,-16.713l0.114,0.098l-14.01,16.713Z" style="fill:#cfa54b;"/><path d="M1.967,17.933l-0.113,-0.094l14.01,-16.716l0.118,0.097l-14.015,16.713Z" style="fill:#d1a74d;"/><path d="M1.893,17.871l-0.117,-0.098l14.01,-16.713l0.117,0.098l-14.01,16.713Z" style="fill:#d2a94e;"/><path d="M1.815,17.804l-0.118,-0.094l14.015,-16.717l0.113,0.098l-14.01,16.713Z" style="fill:#d3ab50;"/><path d="M1.737,17.742l-0.114,-0.098l14.01,-16.713l0.118,0.094l-14.014,16.717Z" style="fill:#d4ac51;"/><path d="M1.658,17.675l-0.113,-0.098l14.01,-16.713l0.118,0.098l-14.015,16.713Z" style="fill:#d5ae53;"/><path d="M1.584,17.613l-0.117,-0.098l14.014,-16.713l0.113,0.094l-14.01,16.717Z" style="fill:#d7b054;"/><path d="M1.506,17.546l-0.117,-0.098l14.014,-16.713l0.113,0.098l-14.01,16.713Z" style="fill:#d8b256;"/><path d="M1.428,17.483l-0.114,-0.097l14.01,-16.713l0.118,0.094l-14.014,16.716Z" style="fill:#d9b457;"/><path d="M1.353,17.417l-0.117,-0.098l14.01,-16.713l0.118,0.098l-14.011,16.713Z" style="fill:#dab559;"/><path d="M1.275,17.354l-0.117,-0.097l14.014,-16.717l0.113,0.098l-14.01,16.716Z" style="fill:#dcb75b;"/><path d="M1.197,17.288l-0.117,-0.098l14.014,-16.713l0.117,0.098l-14.014,16.713Z" style="fill:#ddb95c;"/><path d="M1.119,17.225l-0.114,-0.097l14.01,-16.717l0.118,0.097l-14.014,16.717Z" style="fill:#debb5e;"/><path d="M1.044,17.159l-0.117,-0.098l14.014,-16.713l0.114,0.098l-14.011,16.713Z" style="fill:#dfbc5f;"/><path d="M0.966,17.092l-0.117,-0.094l14.014,-16.716l0.113,0.097l-14.01,16.713Z" style="fill:#e1be61;"/><path d="M0.888,17.03l-0.114,-0.098l14.011,-16.713l0.117,0.098l-14.014,16.713Z" style="fill:#e2c062;"/><path d="M0.81,16.963l-0.114,-0.094l14.01,-16.716l0.118,0.097l-14.014,16.713Z" style="fill:#e3c264;"/><path d="M0.735,16.901l-0.117,-0.098l14.014,-16.713l0.114,0.098l-14.011,16.713Z" style="fill:#e4c365;"/><path d="M0.657,16.834l-0.117,-0.094l14.014,-16.717l0.113,0.098l-14.01,16.713Z" style="fill:#e5c567;"/><path d="M0.579,16.772l-0.114,-0.098l14.011,-16.713l0.117,0.094l-14.014,16.717Z" style="fill:#e7c769;"/><path d="M0.505,16.705l-0.118,-0.098l14.01,-16.713l0.118,0.098l-14.01,16.713Z" style="fill:#e8c96a;"/><path d="M0.426,16.643l-0.117,-0.098l14.014,-16.713l0.114,0.094l-14.011,16.717Z" style="fill:#e9ca6c;"/><path d="M0.348,16.576l-0.113,-0.098l14.01,-16.713l0.117,0.098l-14.014,16.713Z" style="fill:#eacc6d;"/><path d="M0.27,16.513l-0.114,-0.097l14.011,-16.713l0.117,0.094l-14.014,16.716Z" style="fill:#ecce6f;"/><path d="M0.196,16.447l-0.118,-0.098l14.014,-16.713l0.114,0.098l-14.01,16.713Z" style="fill:#edd070;"/><path d="M0.117,16.384l-0.117,-0.097l14.014,-16.717l0.114,0.098l-14.011,16.716Z" style="fill:#eed172;"/><path d="M0.039,16.318l-0.113,-0.098l14.01,-16.713l0.117,0.098l-14.014,16.713Z" style="fill:#efd373;"/><path d="M-0.035,16.255l-0.118,-0.097l14.011,-16.717l0.117,0.097l-14.01,16.717Z" style="fill:#f1d575;"/><path d="M-0.113,16.189l-0.118,-0.098l14.014,-16.713l0.114,0.098l-14.01,16.713Z" style="fill:#f2d776;"/><path d="M-0.192,16.122l-0.117,-0.094l14.014,-16.716l0.117,0.097l-14.014,16.713Z" style="fill:#f3d878;"/><path d="M-0.27,16.06l-0.113,-0.098l14.01,-16.713l0.117,0.098l-14.014,16.713Z" style="fill:#f4da7a;"/><path d="M-0.344,15.993l-0.118,-0.094l14.015,-16.716l0.113,0.097l-14.01,16.713Z" style="fill:#f6dc7b;"/><path d="M-0.422,15.931l-0.118,-0.098l14.014,-16.713l0.114,0.098l-14.01,16.713Z" style="fill:#f7de7d;"/><path d="M-0.501,15.864l-0.113,-0.094l14.01,-16.717l0.117,0.098l-14.014,16.713Z" style="fill:#f6dc7b;"/><path d="M-0.579,15.802l-0.113,-0.098l14.01,-16.713l0.117,0.094l-14.014,16.717Z" style="fill:#f4da79;"/><path d="M-0.653,15.735l-0.118,-0.098l14.015,-16.713l0.113,0.098l-14.01,16.713Z" style="fill:#f2d877;"/><path d="M-0.731,15.673l-0.118,-0.098l14.014,-16.713l0.114,0.094l-14.01,16.717Z" style="fill:#f1d575;"/><path d="M-0.81,15.606l-0.113,-0.098l14.01,-16.713l0.117,0.098l-14.014,16.713Z" style="fill:#efd373;"/><path d="M-0.884,15.543l-0.117,-0.097l14.01,-16.713l0.117,0.094l-14.01,16.716Z" style="fill:#eed171;"/><path d="M-0.962,15.477l-0.118,-0.098l14.015,-16.713l0.113,0.098l-14.01,16.713Z" style="fill:#ecce6f;"/><path d="M-1.04,15.414l-0.114,-0.097l14.01,-16.717l0.118,0.098l-14.014,16.716Z" style="fill:#eacc6d;"/><path d="M-1.119,15.348l-0.113,-0.098l14.01,-16.713l0.118,0.098l-14.015,16.713Z" style="fill:#e9ca6b;"/><path d="M-1.193,15.285l-0.117,-0.097l14.014,-16.717l0.113,0.097l-14.01,16.717Z" style="fill:#e7c769;"/><path d="M-1.271,15.219l-0.118,-0.098l14.015,-16.713l0.113,0.098l-14.01,16.713Z" style="fill:#e6c567;"/><path d="M-1.349,15.156l-0.114,-0.098l14.01,-16.716l0.118,0.097l-14.014,16.717Z" style="fill:#e4c365;"/><path d="M-1.424,15.09l-0.117,-0.098l14.01,-16.713l0.118,0.098l-14.011,16.713Z" style="fill:#e2c163;"/><path d="M-1.502,15.023l-0.117,-0.094l14.014,-16.716l0.113,0.097l-14.01,16.713Z" style="fill:#e1be61;"/><path d="M-1.58,14.961l-0.117,-0.098l14.014,-16.713l0.117,0.098l-14.014,16.713Z" style="fill:#dfbc5f;"/><path d="M-1.658,14.894l-0.114,-0.094l14.01,-16.717l0.118,0.098l-14.014,16.713Z" style="fill:#ddba5d;"/><path d="M-1.733,14.832l-0.117,-0.098l14.014,-16.713l0.114,0.094l-14.011,16.717Z" style="fill:#dcb75b;"/><path d="M-1.811,14.765l-0.117,-0.094l14.014,-16.717l0.113,0.098l-14.01,16.713Z" style="fill:#dab559;"/><path d="M-1.889,14.703l-0.114,-0.098l14.011,-16.713l0.117,0.094l-14.014,16.717Z" style="fill:#d9b357;"/><path d="M-1.967,14.636l-0.114,-0.098l14.01,-16.713l0.118,0.098l-14.014,16.713Z" style="fill:#d7b055;"/><path d="M-2.042,14.573l-0.117,-0.097l14.014,-16.713l0.114,0.094l-14.011,16.716Z" style="fill:#d5ae53;"/><path d="M-2.12,14.507l-0.117,-0.098l14.014,-16.713l0.113,0.098l-14.01,16.713Z" style="fill:#d4ac51;"/><path d="M-2.198,14.444l-0.114,-0.097l14.011,-16.717l0.117,0.098l-14.014,16.716Z" style="fill:#d2a94f;"/><path d="M-2.272,14.378l-0.118,-0.098l14.01,-16.713l0.118,0.098l-14.01,16.713Z" style="fill:#d1a74d;"/><path d="M-2.351,14.315l-0.117,-0.097l14.014,-16.717l0.114,0.097l-14.011,16.717Z" style="fill:#cfa54b;"/><path d="M-2.429,14.249l-0.113,-0.098l14.01,-16.713l0.117,0.098l-14.014,16.713Z" style="fill:#cda349;"/><path d="M-2.507,14.186l-0.114,-0.098l14.011,-16.716l0.117,0.097l-14.014,16.717Z" style="fill:#cca046;"/><path d="M-2.581,14.12l-0.118,-0.098l14.014,-16.713l0.114,0.098l-14.01,16.713Z" style="fill:#ca9e44;"/><path d="M-2.66,14.053l-0.117,-0.094l14.014,-16.716l0.114,0.097l-14.011,16.713Z" style="fill:#c89c42;"/><path d="M-2.738,13.991l-0.113,-0.098l14.01,-16.713l0.117,0.098l-14.014,16.713Z" style="fill:#c79940;"/><path d="M-2.812,13.924l-0.118,-0.094l14.011,-16.717l0.117,0.098l-14.01,16.713Z" style="fill:#c5973e;"/><path d="M-2.89,13.862l-0.118,-0.098l14.014,-16.713l0.114,0.094l-14.01,16.717Z" style="fill:#c4953c;"/><path d="M-2.969,13.795l-0.117,-0.094l14.014,-16.717l0.117,0.098l-14.014,16.713Z" style="fill:#c2923a;"/><path d="M-3.047,13.733l-0.113,-0.098l14.01,-16.713l0.117,0.094l-14.014,16.717Z" style="fill:#c09038;"/><path d="M-3.121,13.666l-0.118,-0.098l14.015,-16.713l0.113,0.098l-14.01,16.713Z" style="fill:#bf8e36;"/><path d="M-3.199,13.603l-0.118,-0.097l14.014,-16.713l0.114,0.094l-14.01,16.716Z" style="fill:#bd8c34;"/><path d="M-3.278,13.537l-0.113,-0.098l14.01,-16.713l0.117,0.098l-14.014,16.713Z" style="fill:#bb8932;"/><path d="M-3.356,13.474l-0.113,-0.097l14.01,-16.717l0.117,0.098l-14.014,16.716Z" style="fill:#ba8730;"/><path d="M-3.43,13.408l-0.118,-0.098l14.015,-16.713l0.113,0.098l-14.01,16.713Z" style="fill:#b8852e;"/><path d="M-3.508,13.345l-0.118,-0.097l14.014,-16.717l0.118,0.097l-14.014,16.717Z" style="fill:#b7822c;"/><path d="M-3.587,13.279l-0.16,-0.137l14.01,-16.713l0.164,0.137l-14.014,16.713Z" style="fill:#b5802a;"/></g><path d="M15.453,3.454c-0.105,0.066 -0.309,0.133 -0.457,0.109c-0.094,-0.015 -0.121,-0.058 -0.211,-0.07c-0.055,-0.004 -0.122,-0.004 -0.153,0.008c-0.016,0.004 -0.039,0.007 -0.047,0.019c-0.043,0.031 -0.027,0.098 -0.012,0.153c0.032,0.066 0.043,0.129 -0.011,0.18c-0.032,0.031 -0.071,0.074 -0.016,0.09c0.117,0.047 0.02,0.293 -0.094,0.34c-0.035,0.008 -0.051,0.031 -0.043,0.043c0.133,0.113 0.262,0.027 0.38,-0.106c0.183,-0.199 0.352,-0.418 0.661,-0.406c0.058,-0 0.101,0.007 0.101,0.007c0.051,-0.023 0,-0.094 -0.039,-0.109c-0.066,-0.039 -0.074,-0.196 -0.015,-0.184c0.097,0.016 0.082,0.09 0.082,0.156c-0,0.059 0.015,0.055 0.039,0.016c0.066,-0.109 -0,-0.262 -0.102,-0.262c-0.019,0 -0.039,0.004 -0.063,0.016Zm-1.22,0.109c-0.156,0.082 -0.379,0.157 -0.559,0.219c-0.129,0.043 -0.454,0.09 -0.599,0.09c-0.078,0 -0.125,0.067 -0.093,0.11c0.043,0.058 0.121,0.113 0.179,0.121c0.169,0.016 0.126,0.047 0.02,0.211c-0.086,0.141 -0.172,-0.125 -0.184,-0.137c-0.062,-0.058 -0.16,-0.027 -0.242,-0.004c-0.086,0.02 -0.204,-0.015 -0.227,-0.086c-0.012,-0.031 -0.059,-0.031 -0.098,-0.031c-0.043,0.004 -0.082,0.004 -0.063,-0.031c0.055,-0.118 -0.023,-0.118 -0.082,-0.102c-0.066,0.02 -0.152,0.086 -0.109,0.141c0.055,0.082 0.066,0.207 0.058,0.297c-0.003,0.082 0.051,0.078 0.063,0.149c0.004,0.031 0.004,0.07 0.004,0.07c0.153,0 0.196,-0.102 0.356,-0.004c0.098,0.059 0.207,0.043 0.317,0.02c0.094,-0.02 0.094,-0 0.09,0.058c-0.016,0.126 0.066,0.098 0.133,0.071c0.039,-0.016 0.07,-0.031 0.078,-0.02c0.055,0.067 -0.082,0.145 -0.043,0.251c0.039,0.097 0.336,0.16 0.25,0.25c-0.25,0.239 0.603,0.493 0.743,0.504c0.184,0.016 0.153,-0.148 0.153,-0.234c-0.012,-0.059 -0.031,-0.102 -0.055,-0.157c-0.039,-0.094 -0.113,-0.086 -0.176,-0.082c-0.027,0.004 -0.051,0.004 -0.07,0c-0.071,-0.015 -0.196,-0.07 -0.192,-0.156c0,-0.082 0.012,-0.153 0,-0.235c-0.016,-0.18 -0.356,-0.066 -0.442,-0.184c-0.121,-0.176 0.117,-0.105 0.188,-0.062c0.086,0.051 0.321,0.062 0.411,0.019c0.132,-0.066 0.097,-0.141 0.281,-0.231c0.11,-0.054 -0.008,-0.101 -0.008,-0.101c-0.078,-0.071 0.051,-0.067 0.063,-0.137c0.016,-0.082 -0.078,-0.071 -0.168,-0.055c-0.039,0.004 -0.082,0.012 -0.114,0.008c-0.203,-0.024 -0.043,-0.125 0.043,-0.16c0.227,-0.079 0.153,-0.141 0.196,-0.239c0.047,-0.106 0.199,-0.102 0.207,-0.16c0.008,-0.067 -0.019,-0.09 -0.059,-0.09c-0.078,-0 -0.211,0.086 -0.25,0.109Zm0.923,0.403c-0.231,0.141 -0.5,0.434 -0.708,0.626c-0.07,0.062 0.043,0.086 0.039,0.152c0,0.036 0.043,0.047 0.09,-0.011c0.235,-0.309 0.509,-0.348 0.873,-0.391c0.183,-0.024 0.238,-0.094 0.23,-0.212c-0.007,-0.117 -0.031,-0.195 -0.086,-0.234c-0.031,-0.024 -0.074,-0.032 -0.117,-0.032c-0.102,0 -0.219,0.047 -0.321,0.102Zm0.466,0.415c-0.2,0.043 -0.215,0.043 -0.399,0.05c-0.524,0.04 -0.622,0.732 -0.255,0.853c0.098,0.039 0.372,-0.043 0.529,-0.102c0.082,-0.031 0.121,-0.058 0.148,-0.14c0.004,-0.032 -0.008,-0.051 -0.098,-0.016c-0.152,0.055 -0.262,0.156 -0.449,0.196c-0.141,0.031 -0.266,-0.11 -0.278,-0.266c-0.004,-0.071 0.012,-0.169 0.07,-0.247c0.039,-0.043 0.094,-0.062 0.161,-0.102c0.234,-0.113 0.297,-0.05 0.489,-0.109c0.05,-0.016 0.125,-0.121 0.089,-0.121c0,-0 -0.003,-0 -0.007,0.004Zm3.911,0.097c-0.043,0.02 -0.059,0.141 -0.059,0.184c0,0.141 -0.242,0.301 -0.363,0.341c-0.157,0.05 -0.2,0.254 -0.118,0.375c0.106,0.172 -0.125,0.282 -0.137,0.442c-0.011,0.156 0.086,0.156 0.102,0.313c0.023,0.164 -0.008,0.156 0.133,0.149c0.102,-0.012 0.09,-0.274 0.059,-0.345c-0.129,-0.336 -0,-0.907 -0,-0.59c-0,0.07 0.054,0.254 0.097,0.277c0.071,0.043 0.075,-0.062 0.071,-0.105c-0.008,-0.11 -0.086,-0.227 -0.086,-0.266c0.008,-0.196 0.129,0.102 0.129,0.113c0.008,0.043 0.078,0.133 0.09,0.114c0.039,-0.051 0.023,-0.125 0.058,-0.204c0.04,-0.082 0.204,-0.305 0.208,-0.336c0.031,-0.113 -0.047,-0.469 -0.161,-0.469c-0.007,-0 -0.015,0.004 -0.023,0.007Zm-4.772,0.157c-0.778,0.481 -0.058,0.837 0.067,0.727c0.019,-0.015 0.07,-0.086 0.039,-0.097c-0.247,-0.094 -0.208,-0.423 -0.09,-0.591c0.043,-0.067 0.055,-0.086 0.051,-0.086c-0.008,-0 -0.036,0.027 -0.067,0.047Zm-2.476,0.043c-0.297,0.379 -0.25,0.602 -0.281,0.849c-0.016,0.148 -0.575,0.856 -0.102,0.915c-0.055,0.055 0.145,0.665 0.379,0.547c0.032,-0.015 0.13,-0.086 0.157,-0.078c0.059,0.016 -0.254,0.427 -0.473,0.047c-0.098,-0.168 -0.149,-0.434 -0.231,-0.297c-0.059,0.102 -0.031,0.195 0.015,0.266c0.032,0.043 0.004,0.18 -0.015,0.309c-0.043,0.235 -0.043,0.305 -0.024,0.547c0.036,0.392 0.063,0.947 -0.246,1.174c-0.023,0.015 -0.266,0.109 -0.207,0.156c0.207,0.168 1.392,-0.281 1.099,-0.606c-0.129,-0.141 0.133,-0.282 -0.004,-0.477c-0.051,-0.067 -0.133,-0.653 0.043,-0.712c0.094,-0.031 0.133,0.027 0.168,0.086c0.039,0.063 0.07,0.125 0.16,0.074c0.086,-0.047 0.012,-0.195 0.161,-0.019c0.09,0.098 0.266,0.055 0.141,0.403c-0.043,0.117 0.07,0.352 0.277,0.324c0.227,-0.039 0.255,-0.485 0.141,-0.5c-0.066,-0 -0.113,0.246 -0.184,0.234c-0.055,-0.043 0.004,-0.164 0.071,-0.254c0.258,-0.352 0.121,-0.344 -0.004,-0.332c-0.071,0.004 -0.137,0.007 -0.125,-0.055c0.015,-0.082 0.14,-0.829 -0.149,-0.673c-0.149,0.086 -0.02,-0.094 -0.02,-0.254c0,-0.153 -0.05,-0.246 -0.093,-0.391c-0.145,-0.567 0.352,-0.978 -0,-1.201c-0.071,-0.051 -0.372,0.188 -0.427,0.258c-0.047,0.067 -0.07,0.149 -0.098,0.235c-0.047,0.152 -0.097,0.238 -0.16,0.238c-0.113,0 -0.094,-0.195 -0.035,-0.422c0.039,-0.129 0.121,-0.246 0.133,-0.352c-0,-0.035 -0.008,-0.066 -0.028,-0.066c-0.011,-0 -0.023,0.007 -0.039,0.027Zm0.071,1.15c0.254,-0.204 0.481,-0.884 0.649,-0.884c0,0.223 -0.481,0.954 -0.673,1.095c-0.227,0.164 -0.418,-0.196 -0.281,-0.481c0.023,-0.051 0.039,0.109 0.051,0.137c-0,0.16 0.043,0.215 0.097,0.215c0.047,-0 0.102,-0.035 0.157,-0.082Zm0.141,0.95c0.039,-0.058 0.019,-0.324 0.019,-0.41c0,-0.098 0.027,-0.184 0.11,-0.247c0.082,-0.059 0.093,-0.172 0.14,-0.242c0.012,-0.024 0.04,-0.055 0.032,-0.024c0.027,0.153 -0.008,0.235 -0.114,0.333c-0.07,0.07 -0.058,0.168 -0.058,0.266c-0,0.074 -0,0.363 -0.114,0.363c-0.027,0 -0.015,-0.039 -0.015,-0.039Zm7.126,-1.541c-0.047,0.047 -0.035,0.215 -0.117,0.297c-0.02,0.024 -0.153,0.219 -0.153,0.259c0.008,0.168 -0.117,0.328 0.082,0.309c0.055,-0.008 0.266,-0.239 0.297,-0.309c0.04,-0.083 0.051,-0.094 0.059,-0.192c0.008,-0.031 0.055,-0.18 0.11,-0.184c0.113,-0.016 0.14,-0.051 0.113,-0.168c-0.004,-0.055 -0.043,-0.082 -0.047,-0.192c0,-0.004 -0.106,-0.309 -0.137,-0.309c-0.047,0 -0.027,0.317 -0.207,0.489Zm0.344,0.368c-0.039,0.043 -0.106,0.148 -0.137,0.203c-0.055,0.102 -0.082,0.251 -0.015,0.352c0.046,0.086 0.258,-0.129 0.309,-0.156c0.09,-0.067 0.16,-0.262 0.007,-0.344c-0.031,-0.016 -0.093,-0.071 -0.137,-0.071c-0.011,0 -0.023,0.008 -0.027,0.016Zm-0.606,0.641c-0.067,0.051 -0.024,0.169 0.055,0.204c0.144,0.058 0.285,0.258 0.438,0.141c0.047,-0.04 0.129,-0.329 -0.051,-0.329c-0.161,-0 -0.09,-0.031 -0.145,-0.063c-0.023,-0.019 -0.051,-0.023 -0.086,-0.023c-0.074,-0 -0.164,0.035 -0.211,0.07Zm-0.657,0.301c0.008,0.032 0.039,0.071 0.062,0.098c0.043,0.035 0.047,0.106 0.141,0.114c0.051,0.004 0.035,-0.008 0.078,-0.036c0.043,-0.019 -0.007,-0.117 -0.043,-0.144c-0.039,-0.032 -0.14,-0.114 -0.199,-0.114c-0.028,0 -0.047,0.024 -0.039,0.082Zm-0.098,0.036c-0.02,0.039 -0.035,0.125 -0.004,0.168c0.059,0.094 0.043,0.211 0.168,0.211c0.11,0 0.086,-0.141 0.055,-0.176c-0.012,-0.016 -0.082,-0.055 -0.121,-0.109c-0.016,-0.028 -0.063,-0.102 -0.086,-0.102c-0.004,-0 -0.008,0.004 -0.012,0.008Zm-0.207,0.571c-0.051,0.07 -0.345,0.317 -0.438,0.32c-0.345,0.043 -0.192,0.572 0.117,0.333c0.199,-0.153 0.438,-0.379 0.551,-0.61c0.036,-0.063 0.008,-0.188 -0.066,-0.188c-0.043,0 -0.098,0.039 -0.164,0.145Zm0.277,0.121c-0.101,0.168 -0.144,0.379 -0.375,0.481c-0.086,0.039 -0.11,0.133 -0.11,0.211c0,0.098 -0.011,0.204 0.118,0.196c0.254,-0.02 0.543,-0.755 0.528,-0.911c-0.004,-0.036 -0.024,-0.075 -0.055,-0.075c-0.027,0 -0.059,0.024 -0.106,0.098Zm-1.032,0.395c-0.051,0.004 -0.56,0.52 -0.622,0.563c-0.145,0.133 -0.29,0.196 -0.423,0.235c-0.043,0.012 -0.148,-0.004 -0.285,0.039c-0.117,0.043 -0.43,0.262 -0.583,0.184c-0.039,-0.016 -0.051,0.016 -0.051,0.051c0.008,0.117 0.039,0.215 0.039,0.363c0,0.087 -0.011,0.309 0.098,0.309c0.145,0 0.102,-0.387 0.11,-0.496c0.004,-0.141 0.043,-0.157 0.086,0.023c0.031,0.114 -0.051,0.29 -0.051,0.458c-0,0.047 -0.008,0.086 0.066,0.07c0.204,-0.023 0.012,-0.755 0.059,-0.782c0.071,-0.039 0.098,0.356 0.098,0.395c-0,0.07 -0.024,0.512 0.09,0.458c0.133,-0.063 -0.184,-0.877 0.012,-0.822c0.054,0.012 0.105,0.153 0.105,0.211c0.008,0.556 0.782,-0.633 1.103,-0.899c0.051,-0.043 0.149,-0.09 0.204,-0.035c0.031,0.035 0.097,0.043 0.097,-0.008c-0.004,-0.035 0.012,-0.137 -0.039,-0.153c-0.121,-0.023 -0.004,-0.164 -0.098,-0.164l-0.015,0Zm-16.193,0.043c-0.109,0.012 -0.215,0.051 -0.313,0.106c-0.191,0.101 -0.348,0.281 -0.313,0.508c0.004,0.031 0.016,0.102 0.043,0.121c0.079,0.059 0.196,0.071 0.29,0.063c0.098,-0.004 0.203,-0.047 0.289,-0.086c0.063,-0.031 0.133,-0.059 0.204,-0.082c0.136,-0.032 0.254,-0.004 0.375,0.062c0.904,0.509 0.853,1.581 0.458,2.41c-0.161,0.348 -0.36,0.684 -0.556,1.021c-0.363,0.645 -0.77,1.462 -0.786,2.217c-0.012,0.411 0.11,0.771 0.43,1.048c0.258,0.227 0.442,0.302 0.783,0.337c0.856,0.07 1.654,-0.309 2.174,-0.994l0.118,-0.152l0.105,0.16c0.215,0.356 0.509,0.442 0.736,0.497c0.285,0.07 0.402,0.004 0.582,0.152c0.11,0.09 0.258,0.243 0.38,0.396c0.258,0.352 0.43,0.148 0.422,-0c-0.008,-0.094 -0.254,-0.29 -0.332,-0.341c-0.09,-0.066 -0.2,-0.144 -0.345,-0.215c-0.672,-0.313 -1.298,-0.649 -0.962,-1.271c0.004,-0.008 0.106,0.438 0.356,0.649c0.325,0.278 0.638,0.395 0.974,0.548c0.329,0.152 0.626,0.309 0.739,0.262c0.196,-0.082 -0.211,-0.329 -0.653,-0.556c-0.696,-0.359 -1.232,-0.559 -1.201,-1.415c0,-0.024 0.071,0.199 0.278,0.442c0.274,0.344 1.209,1.032 1.659,1.056c0.109,0.003 0.215,-0.008 0.215,-0.016c-0.059,-0.501 -1.909,-0.861 -1.788,-1.733c0.004,-0.062 0.544,0.986 1.486,1.037c-1.396,-0.939 -1.083,-1.635 -0.285,-2.14c0.571,-0.36 1.799,-0.277 2.112,-0.399c-0.043,-0.008 -0.778,-0.144 -1.173,-0.489c-0.043,0.008 -0.2,0.028 -0.215,0.028c-1.326,0.191 -2.547,1.083 -3.302,2.167c-0.156,0.23 -0.281,0.481 -0.426,0.711c-0.282,0.435 -0.774,0.967 -1.318,1.017c-0.141,0.012 -0.282,-0.011 -0.403,-0.07c-0.305,-0.153 -0.43,-0.489 -0.43,-0.821c-0,-0.407 0.246,-0.923 0.43,-1.275c0.106,-0.2 0.219,-0.395 0.333,-0.591c0.097,-0.168 0.199,-0.344 0.289,-0.524c0.207,-0.395 0.344,-0.782 0.422,-1.22c0.114,-0.63 0.094,-1.299 -0.262,-1.847c-0.289,-0.438 -0.954,-0.786 -1.494,-0.786c-0.043,0 -0.086,0.004 -0.125,0.008Zm16.584,0.203c-0.043,0.032 -0.098,0.059 -0.141,0.079c-0.086,0.035 -0.059,0.133 -0.082,0.207c-0.004,0.043 0.008,0.211 0.035,0.246c0.078,0.114 0.243,0.004 0.258,-0.117c0.016,-0.043 0.082,-0.434 -0.027,-0.434c-0.012,-0 -0.027,0.008 -0.043,0.019Zm-0.419,0.141c-0.062,0.032 -0.289,0.477 -0.555,0.747c-0.286,0.301 -0.618,0.427 -0.669,0.513c-0.035,0.054 -0.035,0.109 0.031,0.16c0.439,0.36 1.424,-0.591 1.326,-0.903c-0.078,-0.263 0.043,-0.294 -0.019,-0.403c-0.02,-0.047 -0.028,-0.125 -0.078,-0.125c-0.012,-0 -0.02,0.003 -0.036,0.011Zm-2.444,0.446c0.043,0.168 0.278,0.563 0.309,0.728c0.066,0.258 0.195,0.469 0.391,0.59c0.102,0.059 0.239,0.067 0.239,-0.101c-0,-0.098 -0.094,-0.173 -0.184,-0.18c-0.333,-0.012 -0.317,-0.317 -0.305,-0.54c0.023,-0.52 -0.016,-0.325 -0.243,-0.696c-0.039,-0.063 -0.086,-0.094 -0.125,-0.094c-0.074,-0 -0.125,0.101 -0.082,0.293Zm-7.205,-0.023c-0.95,0.559 -0.735,2.378 0.712,2.659c1.408,0.278 3.548,-0.602 4.619,-0.845c0.227,-0.05 0.622,-0.05 0.767,-0.211c0.043,-0.051 0.09,-0.121 0.016,-0.18c-0.294,-0.219 -1.146,0.083 -2.124,0.395c-1.377,0.442 -3.016,0.935 -3.837,0.325c-0.258,-0.196 -0.524,-0.497 -0.571,-0.978c-0.047,-0.426 0.144,-0.923 0.457,-1.169c0.004,-0 0,-0.004 -0.007,-0.004c-0.008,-0 -0.02,0.004 -0.032,0.008Zm6.278,0.015c-1.412,0.043 -5.05,1.972 -6.102,0.931c-0.164,-0.164 -0.234,-0.403 -0.121,-0.763c-0.352,0.489 -0.149,1.064 0.235,1.315c0.438,0.277 1.314,0.109 2.296,-0.18c1.044,-0.301 2.225,-0.739 3.144,-0.927c0.685,-0.137 1.111,0.121 1.365,0.383c0.223,0.231 0.313,0.462 0.317,0.419c0.086,-0.685 -0.559,-1.178 -1.111,-1.178l-0.023,0Zm7.279,0.059c-0.031,0.055 -0.098,0.168 -0.192,0.239c-0.113,0.082 -0.36,0.207 -0.418,0.246c-0.122,0.074 -0.141,0.196 -0.184,0.293c-0.078,0.157 -0.114,0.298 -0.094,0.434c0.012,0.075 -0.047,0.102 -0.031,0.114c-0.071,-0 -0.036,-0.153 -0.122,-0.184c-0.09,-0.031 0.012,0.243 0.024,0.266c0.047,0.094 -0.043,0.141 -0.098,0.039c-0.039,-0.078 -0.004,-0.235 -0.016,-0.238c-0.066,-0.043 -0.086,0.117 -0.07,0.168c0.063,0.152 -0.051,0.215 -0.07,0.152c-0.028,-0.062 -0.016,-0.137 -0.024,-0.191c-0.008,-0.126 -0.215,0.101 -0.258,0.14c-0.031,0.028 -0.141,0.012 -0.27,0c-0.242,-0.027 -0.559,-0.05 -0.559,0.184c-0,0.078 -0.059,0.305 -0.004,0.337c0.117,0.062 0.195,-0.063 0.297,-0.184c0.098,-0.121 0.219,-0.243 0.423,-0.184c0.039,0.004 0.293,0.098 0.293,0.098c0.07,-0.004 0.113,-0.004 0.145,-0c0.07,-0 0.066,0.004 0.23,-0.055c0.262,-0.086 0.223,-0.391 0.392,-0.462c0.074,-0.039 0.226,-0.109 0.285,-0.156c0.082,-0.066 0.196,0.02 0.196,0.055c-0,0.176 -0.102,0.125 -0.102,0.184c-0,0.074 0.196,0.043 0.242,0.039c0.227,-0.039 0.184,-0.446 0.169,-0.614c-0.024,-0.169 -0.039,-0.141 -0.137,-0.098c-0.055,0.019 -0.098,0.074 -0.133,0.117c-0.082,0.098 -0.122,0.157 -0.239,0.157c-0.113,-0 -0.023,-0.047 -0.023,-0.047c0.097,-0.028 0.199,-0.423 0.317,-0.403c0.226,0.043 0.187,-0.16 0.191,-0.297c0.004,-0.106 -0.059,-0.18 -0.113,-0.18c-0.02,-0 -0.035,0.011 -0.047,0.031Zm-13.662,1.69c0.669,0.739 1.908,0.316 3.183,0.007c1.792,-0.445 3.317,-1.067 3.626,-0.5c0.008,0.019 0.035,-0.164 -0.023,-0.348c-0.055,-0.184 -0.196,-0.368 -0.524,-0.348c-1.557,0.086 -5.253,2.163 -6.165,0.86c-0.34,-0.485 -0.109,-1.201 0.063,-1.338c-0.211,0.047 -0.727,1.045 -0.16,1.667Zm10.912,-0.188c-0.442,0.09 -0.465,0.059 -0.911,0.019c-0.164,-0.003 -0.364,-0.011 -0.509,0.008c-0.32,0.043 -0.34,0.313 0.411,0.325c0.02,-0 0.004,0.235 -0.012,0.395c-0.039,0.321 0.208,0.109 0.258,-0.188c0.02,-0.09 0.098,-0.234 0.149,-0.09c0.016,0.055 0.004,0.415 0.047,0.438c0.027,0.02 0.098,0 0.129,-0.074c0.07,-0.188 0.035,-0.52 0.364,-0.579c0.094,-0.016 0.184,-0.18 0.18,-0.262c-0,-0.004 -0.008,-0.004 -0.02,-0.004c-0.019,0 -0.051,0.004 -0.086,0.012Zm-3.794,1.447c-0.051,0.035 -0.164,0.082 -0.137,0.16c0.059,0.161 0.298,0.102 0.513,0.047c0.141,-0.035 0.273,-0.074 0.336,-0.047c0.008,0.004 0.043,0.016 0.082,0.032c0.082,0.031 0.098,0.047 0.184,0.043c0.246,-0.032 -0.043,-0.325 -0.059,-0.376c-0.023,-0.054 -0.09,-0.074 -0.176,-0.074c-0.238,-0 -0.645,0.16 -0.743,0.215Zm-7.357,2.186c0.039,0.02 0.336,0.231 0.352,0.231c0,-0.371 -0.411,-0.508 -0.113,-0.755c0.18,-0.148 0.426,-0.148 0.606,-0.148c0.121,0.004 0.215,0.004 0.242,-0.039c0.09,-0.137 -0.41,-0.188 -0.488,-0.188l-0.047,-0c-0.704,-0 -1.197,0.461 -0.552,0.899Zm0.481,0.079c-0.015,-0 -0.094,0.039 -0.07,0.082c0.141,0.36 0.45,1.005 0.34,1.451c-0.133,0.555 -0.598,0.95 -0.794,1.107c-0.055,0.051 -0.059,0.094 -0.059,0.094c0.286,-0.141 0.481,-0.235 0.685,-0.489c0.086,-0.102 0.023,0.015 0.164,0.031c0.501,0.051 0.653,-0.563 0.528,-1.205c-0.105,-0.485 -0.356,-1.075 -0.731,-1.075c-0.02,-0 -0.043,-0 -0.063,0.004Zm-2.202,1.924c0.008,0.211 -1.713,1.119 -2.163,1.119c-0.199,-0 -0.438,0.094 -0.481,0.297c-0.023,0.109 0.117,0.332 0.114,0.524c-0.004,0.297 0.003,1.287 0.379,1.369c0.195,0.043 -0.207,-0.364 0.004,-0.665c-0,0 0.102,-0.184 0.012,-0.098c-0.137,0.122 -0.208,0.485 -0.184,0.149c0.004,-0.098 0.238,-0.293 0.266,-0.462c0.027,-0.136 -0.071,-0.047 -0.153,0.04c-0.059,0.066 -0.113,0.129 -0.113,0.113c-0,-0.09 0.09,-0.196 0.156,-0.246c0.157,-0.11 0.153,-0.478 0.016,-0.278c-0.039,0.051 -0.215,0.434 -0.215,0.18c-0,-0.309 0.211,-0.215 0.246,-0.407c0.09,-0.415 -0.258,0.082 -0.258,0.086c-0.039,0.008 -0.059,0.051 -0.11,-0.07c-0.078,-0.188 0.18,-0.341 0.298,-0.341c0.008,-0.031 0.004,0 0.011,0.032c0.012,0.039 0.04,0.078 0.126,-0.016c0.226,-0.25 2.714,-0.696 2.233,-0.958c-0.012,-0.004 -0.176,-0.063 -0.141,-0.133c0.031,-0.063 0.082,-0.02 0.129,0.019c0.035,0.036 0.067,0.067 0.082,0.051c0.082,-0.086 0.051,-0.164 0,-0.231c-0.031,-0.058 -0.14,-0.176 -0.207,-0.176c-0.031,0 -0.051,0.028 -0.047,0.102Zm2.574,0.892c-0.071,0.015 -0.262,0.113 -0.204,0.211c0.016,0.031 0.157,0.016 0.196,0.012c0.133,-0.016 0.043,-0.094 0.019,-0.219c0,-0 -0.003,-0.008 -0.007,-0.008l-0.004,0.004Zm-0.442,0.168c-0.024,0.196 0.101,0.395 0.285,0.477c0.509,0.235 1.095,0.086 1.577,0.028c0.07,-0.012 0.176,-0.04 0.238,0.015c0.031,0.024 0.086,0.059 0.059,0.102c-0.012,0.023 -0.024,0.047 -0.055,0.047c-0.09,0.027 -0.297,0.019 -0.442,0.016c-0.074,-0.004 -0.129,-0.008 -0.137,-0.008c-0.039,0.019 -0.012,0.121 0.071,0.16c0.226,0.086 0.203,0.356 0.426,0.184c0.055,-0.051 0.219,-0.071 0.278,-0.012c0.176,0.192 0.062,-0.016 0.262,-0.059c0.054,-0.011 0.105,-0.203 -0.016,-0.289c-0.07,-0.055 -0.344,-0.227 -0.301,-0.336c-0,-0.004 0.141,-0.114 0.141,0.039c-0,0.164 0.133,0.066 0.156,-0.032c0.016,-0.074 -0.031,-0.148 -0.266,-0.101c-0.395,0.09 -0.704,0.426 -1.373,0.172c-0.406,-0.153 -0.097,-0.196 -0.434,-0.094c-0.375,0.113 -0.309,-0.434 -0.375,-0.458l-0.008,0c-0.047,0 -0.082,0.11 -0.086,0.149Zm0.313,0.258c0.015,0.098 0.336,-0.058 0.234,-0.145c-0.015,-0.015 -0.031,-0.019 -0.05,-0.019c-0.083,-0 -0.192,0.102 -0.184,0.164Zm-0.736,-0.027c-0.101,0.145 0.122,0.25 0.2,0.297c0.305,0.145 0.52,0.243 0.868,0.313c0.086,0.016 0.254,0.051 0.278,-0.067c0.027,-0.109 -0.004,-0.101 -0.067,-0.093c-0.019,-0 -0.043,0.004 -0.066,0.004c-0.376,-0.016 -0.595,-0.098 -0.927,-0.403c-0.059,-0.055 -0.121,-0.118 -0.184,-0.118c-0.035,0 -0.066,0.02 -0.102,0.067Zm1.557,0.5c-0.102,0.051 -0.254,0.18 -0.063,0.196c0.083,0.012 0.239,0.027 0.309,-0.02c0.036,-0.023 -0.05,-0.105 -0.109,-0.152c-0.031,-0.027 -0.047,-0.039 -0.07,-0.039c-0.016,-0 -0.036,0.004 -0.067,0.015Zm-4.838,0.063c-0.012,0.043 0.082,0.133 0.101,0.141c0.137,0.035 0.098,-0 0.13,-0.051c0.054,-0.09 -0.106,-0.102 -0.188,-0.102l-0.016,0c-0.008,0 -0.019,0 -0.027,0.012Zm-0.094,0.129c-0.035,0.031 -0,0.086 0.016,0.11c0.035,0.074 0.062,0.078 0.121,0.117c0.039,0.027 0.098,0.008 0.102,-0.016c0.003,-0.058 -0.004,-0.07 -0.04,-0.109c-0.035,-0.039 -0.156,-0.102 -0.199,-0.102Zm-0,0c-0.004,0 -0.004,0.004 -0,0Zm0.364,1.584c0.039,0.051 0.07,0.039 0.117,0.114c0.066,0.117 0.039,0.066 0.07,0.187c0.016,0.059 0.137,0.188 0.165,0.063c0.004,-0.008 0.086,-0.102 0.113,-0.102c0.102,0 0.176,-0.031 0.082,-0.129c-0.043,-0.043 -0.184,-0.18 -0.219,-0.211c-0.07,-0.059 -0.148,-0.082 -0.211,-0.082c-0.113,-0 -0.188,0.078 -0.117,0.16Zm0.399,-0.098c0.043,0.051 0.406,0.356 0.477,0.29c0.199,-0.2 -0.114,-0.297 -0.325,-0.325c-0.043,-0.004 -0.086,-0.012 -0.117,-0.012c-0.047,0 -0.067,0.012 -0.035,0.047Zm-0.72,0.043c-0,0.028 0.055,0.094 0.055,0.094c-0,0.004 0.027,0.039 0.039,0.043c0.117,0.106 0.07,0.106 0.105,0.212c0.012,0.039 0.212,0.035 0.212,0.023c0.023,-0 0.011,-0.078 0.019,-0.086c0.016,-0.051 -0.105,-0.16 -0.137,-0.168c-0.058,-0.035 -0.097,-0.055 -0.152,-0.094c-0.043,-0.031 -0.086,-0.039 -0.129,-0.047c-0.004,-0.004 -0.004,-0.004 -0.008,-0.004c-0.012,0 -0.004,0.023 -0.004,0.027Z" style="fill:none;"/><clipPath id="_clip2"><path d="M15.453,3.454c-0.105,0.066 -0.309,0.133 -0.457,0.109c-0.094,-0.015 -0.121,-0.058 -0.211,-0.07c-0.055,-0.004 -0.122,-0.004 -0.153,0.008c-0.016,0.004 -0.039,0.007 -0.047,0.019c-0.043,0.031 -0.027,0.098 -0.012,0.153c0.032,0.066 0.043,0.129 -0.011,0.18c-0.032,0.031 -0.071,0.074 -0.016,0.09c0.117,0.047 0.02,0.293 -0.094,0.34c-0.035,0.008 -0.051,0.031 -0.043,0.043c0.133,0.113 0.262,0.027 0.38,-0.106c0.183,-0.199 0.352,-0.418 0.661,-0.406c0.058,-0 0.101,0.007 0.101,0.007c0.051,-0.023 0,-0.094 -0.039,-0.109c-0.066,-0.039 -0.074,-0.196 -0.015,-0.184c0.097,0.016 0.082,0.09 0.082,0.156c-0,0.059 0.015,0.055 0.039,0.016c0.066,-0.109 -0,-0.262 -0.102,-0.262c-0.019,0 -0.039,0.004 -0.063,0.016Zm-1.22,0.109c-0.156,0.082 -0.379,0.157 -0.559,0.219c-0.129,0.043 -0.454,0.09 -0.599,0.09c-0.078,0 -0.125,0.067 -0.093,0.11c0.043,0.058 0.121,0.113 0.179,0.121c0.169,0.016 0.126,0.047 0.02,0.211c-0.086,0.141 -0.172,-0.125 -0.184,-0.137c-0.062,-0.058 -0.16,-0.027 -0.242,-0.004c-0.086,0.02 -0.204,-0.015 -0.227,-0.086c-0.012,-0.031 -0.059,-0.031 -0.098,-0.031c-0.043,0.004 -0.082,0.004 -0.063,-0.031c0.055,-0.118 -0.023,-0.118 -0.082,-0.102c-0.066,0.02 -0.152,0.086 -0.109,0.141c0.055,0.082 0.066,0.207 0.058,0.297c-0.003,0.082 0.051,0.078 0.063,0.149c0.004,0.031 0.004,0.07 0.004,0.07c0.153,0 0.196,-0.102 0.356,-0.004c0.098,0.059 0.207,0.043 0.317,0.02c0.094,-0.02 0.094,-0 0.09,0.058c-0.016,0.126 0.066,0.098 0.133,0.071c0.039,-0.016 0.07,-0.031 0.078,-0.02c0.055,0.067 -0.082,0.145 -0.043,0.251c0.039,0.097 0.336,0.16 0.25,0.25c-0.25,0.239 0.603,0.493 0.743,0.504c0.184,0.016 0.153,-0.148 0.153,-0.234c-0.012,-0.059 -0.031,-0.102 -0.055,-0.157c-0.039,-0.094 -0.113,-0.086 -0.176,-0.082c-0.027,0.004 -0.051,0.004 -0.07,0c-0.071,-0.015 -0.196,-0.07 -0.192,-0.156c0,-0.082 0.012,-0.153 0,-0.235c-0.016,-0.18 -0.356,-0.066 -0.442,-0.184c-0.121,-0.176 0.117,-0.105 0.188,-0.062c0.086,0.051 0.321,0.062 0.411,0.019c0.132,-0.066 0.097,-0.141 0.281,-0.231c0.11,-0.054 -0.008,-0.101 -0.008,-0.101c-0.078,-0.071 0.051,-0.067 0.063,-0.137c0.016,-0.082 -0.078,-0.071 -0.168,-0.055c-0.039,0.004 -0.082,0.012 -0.114,0.008c-0.203,-0.024 -0.043,-0.125 0.043,-0.16c0.227,-0.079 0.153,-0.141 0.196,-0.239c0.047,-0.106 0.199,-0.102 0.207,-0.16c0.008,-0.067 -0.019,-0.09 -0.059,-0.09c-0.078,-0 -0.211,0.086 -0.25,0.109Zm0.923,0.403c-0.231,0.141 -0.5,0.434 -0.708,0.626c-0.07,0.062 0.043,0.086 0.039,0.152c0,0.036 0.043,0.047 0.09,-0.011c0.235,-0.309 0.509,-0.348 0.873,-0.391c0.183,-0.024 0.238,-0.094 0.23,-0.212c-0.007,-0.117 -0.031,-0.195 -0.086,-0.234c-0.031,-0.024 -0.074,-0.032 -0.117,-0.032c-0.102,0 -0.219,0.047 -0.321,0.102Zm0.466,0.415c-0.2,0.043 -0.215,0.043 -0.399,0.05c-0.524,0.04 -0.622,0.732 -0.255,0.853c0.098,0.039 0.372,-0.043 0.529,-0.102c0.082,-0.031 0.121,-0.058 0.148,-0.14c0.004,-0.032 -0.008,-0.051 -0.098,-0.016c-0.152,0.055 -0.262,0.156 -0.449,0.196c-0.141,0.031 -0.266,-0.11 -0.278,-0.266c-0.004,-0.071 0.012,-0.169 0.07,-0.247c0.039,-0.043 0.094,-0.062 0.161,-0.102c0.234,-0.113 0.297,-0.05 0.489,-0.109c0.05,-0.016 0.125,-0.121 0.089,-0.121c0,-0 -0.003,-0 -0.007,0.004Zm3.911,0.097c-0.043,0.02 -0.059,0.141 -0.059,0.184c0,0.141 -0.242,0.301 -0.363,0.341c-0.157,0.05 -0.2,0.254 -0.118,0.375c0.106,0.172 -0.125,0.282 -0.137,0.442c-0.011,0.156 0.086,0.156 0.102,0.313c0.023,0.164 -0.008,0.156 0.133,0.149c0.102,-0.012 0.09,-0.274 0.059,-0.345c-0.129,-0.336 -0,-0.907 -0,-0.59c-0,0.07 0.054,0.254 0.097,0.277c0.071,0.043 0.075,-0.062 0.071,-0.105c-0.008,-0.11 -0.086,-0.227 -0.086,-0.266c0.008,-0.196 0.129,0.102 0.129,0.113c0.008,0.043 0.078,0.133 0.09,0.114c0.039,-0.051 0.023,-0.125 0.058,-0.204c0.04,-0.082 0.204,-0.305 0.208,-0.336c0.031,-0.113 -0.047,-0.469 -0.161,-0.469c-0.007,-0 -0.015,0.004 -0.023,0.007Zm-4.772,0.157c-0.778,0.481 -0.058,0.837 0.067,0.727c0.019,-0.015 0.07,-0.086 0.039,-0.097c-0.247,-0.094 -0.208,-0.423 -0.09,-0.591c0.043,-0.067 0.055,-0.086 0.051,-0.086c-0.008,-0 -0.036,0.027 -0.067,0.047Zm-2.476,0.043c-0.297,0.379 -0.25,0.602 -0.281,0.849c-0.016,0.148 -0.575,0.856 -0.102,0.915c-0.055,0.055 0.145,0.665 0.379,0.547c0.032,-0.015 0.13,-0.086 0.157,-0.078c0.059,0.016 -0.254,0.427 -0.473,0.047c-0.098,-0.168 -0.149,-0.434 -0.231,-0.297c-0.059,0.102 -0.031,0.195 0.015,0.266c0.032,0.043 0.004,0.18 -0.015,0.309c-0.043,0.235 -0.043,0.305 -0.024,0.547c0.036,0.392 0.063,0.947 -0.246,1.174c-0.023,0.015 -0.266,0.109 -0.207,0.156c0.207,0.168 1.392,-0.281 1.099,-0.606c-0.129,-0.141 0.133,-0.282 -0.004,-0.477c-0.051,-0.067 -0.133,-0.653 0.043,-0.712c0.094,-0.031 0.133,0.027 0.168,0.086c0.039,0.063 0.07,0.125 0.16,0.074c0.086,-0.047 0.012,-0.195 0.161,-0.019c0.09,0.098 0.266,0.055 0.141,0.403c-0.043,0.117 0.07,0.352 0.277,0.324c0.227,-0.039 0.255,-0.485 0.141,-0.5c-0.066,-0 -0.113,0.246 -0.184,0.234c-0.055,-0.043 0.004,-0.164 0.071,-0.254c0.258,-0.352 0.121,-0.344 -0.004,-0.332c-0.071,0.004 -0.137,0.007 -0.125,-0.055c0.015,-0.082 0.14,-0.829 -0.149,-0.673c-0.149,0.086 -0.02,-0.094 -0.02,-0.254c0,-0.153 -0.05,-0.246 -0.093,-0.391c-0.145,-0.567 0.352,-0.978 -0,-1.201c-0.071,-0.051 -0.372,0.188 -0.427,0.258c-0.047,0.067 -0.07,0.149 -0.098,0.235c-0.047,0.152 -0.097,0.238 -0.16,0.238c-0.113,0 -0.094,-0.195 -0.035,-0.422c0.039,-0.129 0.121,-0.246 0.133,-0.352c-0,-0.035 -0.008,-0.066 -0.028,-0.066c-0.011,-0 -0.023,0.007 -0.039,0.027Zm0.071,1.15c0.254,-0.204 0.481,-0.884 0.649,-0.884c0,0.223 -0.481,0.954 -0.673,1.095c-0.227,0.164 -0.418,-0.196 -0.281,-0.481c0.023,-0.051 0.039,0.109 0.051,0.137c-0,0.16 0.043,0.215 0.097,0.215c0.047,-0 0.102,-0.035 0.157,-0.082Zm0.141,0.95c0.039,-0.058 0.019,-0.324 0.019,-0.41c0,-0.098 0.027,-0.184 0.11,-0.247c0.082,-0.059 0.093,-0.172 0.14,-0.242c0.012,-0.024 0.04,-0.055 0.032,-0.024c0.027,0.153 -0.008,0.235 -0.114,0.333c-0.07,0.07 -0.058,0.168 -0.058,0.266c-0,0.074 -0,0.363 -0.114,0.363c-0.027,0 -0.015,-0.039 -0.015,-0.039Zm7.126,-1.541c-0.047,0.047 -0.035,0.215 -0.117,0.297c-0.02,0.024 -0.153,0.219 -0.153,0.259c0.008,0.168 -0.117,0.328 0.082,0.309c0.055,-0.008 0.266,-0.239 0.297,-0.309c0.04,-0.083 0.051,-0.094 0.059,-0.192c0.008,-0.031 0.055,-0.18 0.11,-0.184c0.113,-0.016 0.14,-0.051 0.113,-0.168c-0.004,-0.055 -0.043,-0.082 -0.047,-0.192c0,-0.004 -0.106,-0.309 -0.137,-0.309c-0.047,0 -0.027,0.317 -0.207,0.489Zm0.344,0.368c-0.039,0.043 -0.106,0.148 -0.137,0.203c-0.055,0.102 -0.082,0.251 -0.015,0.352c0.046,0.086 0.258,-0.129 0.309,-0.156c0.09,-0.067 0.16,-0.262 0.007,-0.344c-0.031,-0.016 -0.093,-0.071 -0.137,-0.071c-0.011,0 -0.023,0.008 -0.027,0.016Zm-0.606,0.641c-0.067,0.051 -0.024,0.169 0.055,0.204c0.144,0.058 0.285,0.258 0.438,0.141c0.047,-0.04 0.129,-0.329 -0.051,-0.329c-0.161,-0 -0.09,-0.031 -0.145,-0.063c-0.023,-0.019 -0.051,-0.023 -0.086,-0.023c-0.074,-0 -0.164,0.035 -0.211,0.07Zm-0.657,0.301c0.008,0.032 0.039,0.071 0.062,0.098c0.043,0.035 0.047,0.106 0.141,0.114c0.051,0.004 0.035,-0.008 0.078,-0.036c0.043,-0.019 -0.007,-0.117 -0.043,-0.144c-0.039,-0.032 -0.14,-0.114 -0.199,-0.114c-0.028,0 -0.047,0.024 -0.039,0.082Zm-0.098,0.036c-0.02,0.039 -0.035,0.125 -0.004,0.168c0.059,0.094 0.043,0.211 0.168,0.211c0.11,0 0.086,-0.141 0.055,-0.176c-0.012,-0.016 -0.082,-0.055 -0.121,-0.109c-0.016,-0.028 -0.063,-0.102 -0.086,-0.102c-0.004,-0 -0.008,0.004 -0.012,0.008Zm-0.207,0.571c-0.051,0.07 -0.345,0.317 -0.438,0.32c-0.345,0.043 -0.192,0.572 0.117,0.333c0.199,-0.153 0.438,-0.379 0.551,-0.61c0.036,-0.063 0.008,-0.188 -0.066,-0.188c-0.043,0 -0.098,0.039 -0.164,0.145Zm0.277,0.121c-0.101,0.168 -0.144,0.379 -0.375,0.481c-0.086,0.039 -0.11,0.133 -0.11,0.211c0,0.098 -0.011,0.204 0.118,0.196c0.254,-0.02 0.543,-0.755 0.528,-0.911c-0.004,-0.036 -0.024,-0.075 -0.055,-0.075c-0.027,0 -0.059,0.024 -0.106,0.098Zm-1.032,0.395c-0.051,0.004 -0.56,0.52 -0.622,0.563c-0.145,0.133 -0.29,0.196 -0.423,0.235c-0.043,0.012 -0.148,-0.004 -0.285,0.039c-0.117,0.043 -0.43,0.262 -0.583,0.184c-0.039,-0.016 -0.051,0.016 -0.051,0.051c0.008,0.117 0.039,0.215 0.039,0.363c0,0.087 -0.011,0.309 0.098,0.309c0.145,0 0.102,-0.387 0.11,-0.496c0.004,-0.141 0.043,-0.157 0.086,0.023c0.031,0.114 -0.051,0.29 -0.051,0.458c-0,0.047 -0.008,0.086 0.066,0.07c0.204,-0.023 0.012,-0.755 0.059,-0.782c0.071,-0.039 0.098,0.356 0.098,0.395c-0,0.07 -0.024,0.512 0.09,0.458c0.133,-0.063 -0.184,-0.877 0.012,-0.822c0.054,0.012 0.105,0.153 0.105,0.211c0.008,0.556 0.782,-0.633 1.103,-0.899c0.051,-0.043 0.149,-0.09 0.204,-0.035c0.031,0.035 0.097,0.043 0.097,-0.008c-0.004,-0.035 0.012,-0.137 -0.039,-0.153c-0.121,-0.023 -0.004,-0.164 -0.098,-0.164l-0.015,0Zm-16.193,0.043c-0.109,0.012 -0.215,0.051 -0.313,0.106c-0.191,0.101 -0.348,0.281 -0.313,0.508c0.004,0.031 0.016,0.102 0.043,0.121c0.079,0.059 0.196,0.071 0.29,0.063c0.098,-0.004 0.203,-0.047 0.289,-0.086c0.063,-0.031 0.133,-0.059 0.204,-0.082c0.136,-0.032 0.254,-0.004 0.375,0.062c0.904,0.509 0.853,1.581 0.458,2.41c-0.161,0.348 -0.36,0.684 -0.556,1.021c-0.363,0.645 -0.77,1.462 -0.786,2.217c-0.012,0.411 0.11,0.771 0.43,1.048c0.258,0.227 0.442,0.302 0.783,0.337c0.856,0.07 1.654,-0.309 2.174,-0.994l0.118,-0.152l0.105,0.16c0.215,0.356 0.509,0.442 0.736,0.497c0.285,0.07 0.402,0.004 0.582,0.152c0.11,0.09 0.258,0.243 0.38,0.396c0.258,0.352 0.43,0.148 0.422,-0c-0.008,-0.094 -0.254,-0.29 -0.332,-0.341c-0.09,-0.066 -0.2,-0.144 -0.345,-0.215c-0.672,-0.313 -1.298,-0.649 -0.962,-1.271c0.004,-0.008 0.106,0.438 0.356,0.649c0.325,0.278 0.638,0.395 0.974,0.548c0.329,0.152 0.626,0.309 0.739,0.262c0.196,-0.082 -0.211,-0.329 -0.653,-0.556c-0.696,-0.359 -1.232,-0.559 -1.201,-1.415c0,-0.024 0.071,0.199 0.278,0.442c0.274,0.344 1.209,1.032 1.659,1.056c0.109,0.003 0.215,-0.008 0.215,-0.016c-0.059,-0.501 -1.909,-0.861 -1.788,-1.733c0.004,-0.062 0.544,0.986 1.486,1.037c-1.396,-0.939 -1.083,-1.635 -0.285,-2.14c0.571,-0.36 1.799,-0.277 2.112,-0.399c-0.043,-0.008 -0.778,-0.144 -1.173,-0.489c-0.043,0.008 -0.2,0.028 -0.215,0.028c-1.326,0.191 -2.547,1.083 -3.302,2.167c-0.156,0.23 -0.281,0.481 -0.426,0.711c-0.282,0.435 -0.774,0.967 -1.318,1.017c-0.141,0.012 -0.282,-0.011 -0.403,-0.07c-0.305,-0.153 -0.43,-0.489 -0.43,-0.821c-0,-0.407 0.246,-0.923 0.43,-1.275c0.106,-0.2 0.219,-0.395 0.333,-0.591c0.097,-0.168 0.199,-0.344 0.289,-0.524c0.207,-0.395 0.344,-0.782 0.422,-1.22c0.114,-0.63 0.094,-1.299 -0.262,-1.847c-0.289,-0.438 -0.954,-0.786 -1.494,-0.786c-0.043,0 -0.086,0.004 -0.125,0.008Zm16.584,0.203c-0.043,0.032 -0.098,0.059 -0.141,0.079c-0.086,0.035 -0.059,0.133 -0.082,0.207c-0.004,0.043 0.008,0.211 0.035,0.246c0.078,0.114 0.243,0.004 0.258,-0.117c0.016,-0.043 0.082,-0.434 -0.027,-0.434c-0.012,-0 -0.027,0.008 -0.043,0.019Zm-0.419,0.141c-0.062,0.032 -0.289,0.477 -0.555,0.747c-0.286,0.301 -0.618,0.427 -0.669,0.513c-0.035,0.054 -0.035,0.109 0.031,0.16c0.439,0.36 1.424,-0.591 1.326,-0.903c-0.078,-0.263 0.043,-0.294 -0.019,-0.403c-0.02,-0.047 -0.028,-0.125 -0.078,-0.125c-0.012,-0 -0.02,0.003 -0.036,0.011Zm-2.444,0.446c0.043,0.168 0.278,0.563 0.309,0.728c0.066,0.258 0.195,0.469 0.391,0.59c0.102,0.059 0.239,0.067 0.239,-0.101c-0,-0.098 -0.094,-0.173 -0.184,-0.18c-0.333,-0.012 -0.317,-0.317 -0.305,-0.54c0.023,-0.52 -0.016,-0.325 -0.243,-0.696c-0.039,-0.063 -0.086,-0.094 -0.125,-0.094c-0.074,-0 -0.125,0.101 -0.082,0.293Zm-7.205,-0.023c-0.95,0.559 -0.735,2.378 0.712,2.659c1.408,0.278 3.548,-0.602 4.619,-0.845c0.227,-0.05 0.622,-0.05 0.767,-0.211c0.043,-0.051 0.09,-0.121 0.016,-0.18c-0.294,-0.219 -1.146,0.083 -2.124,0.395c-1.377,0.442 -3.016,0.935 -3.837,0.325c-0.258,-0.196 -0.524,-0.497 -0.571,-0.978c-0.047,-0.426 0.144,-0.923 0.457,-1.169c0.004,-0 0,-0.004 -0.007,-0.004c-0.008,-0 -0.02,0.004 -0.032,0.008Zm6.278,0.015c-1.412,0.043 -5.05,1.972 -6.102,0.931c-0.164,-0.164 -0.234,-0.403 -0.121,-0.763c-0.352,0.489 -0.149,1.064 0.235,1.315c0.438,0.277 1.314,0.109 2.296,-0.18c1.044,-0.301 2.225,-0.739 3.144,-0.927c0.685,-0.137 1.111,0.121 1.365,0.383c0.223,0.231 0.313,0.462 0.317,0.419c0.086,-0.685 -0.559,-1.178 -1.111,-1.178l-0.023,0Zm7.279,0.059c-0.031,0.055 -0.098,0.168 -0.192,0.239c-0.113,0.082 -0.36,0.207 -0.418,0.246c-0.122,0.074 -0.141,0.196 -0.184,0.293c-0.078,0.157 -0.114,0.298 -0.094,0.434c0.012,0.075 -0.047,0.102 -0.031,0.114c-0.071,-0 -0.036,-0.153 -0.122,-0.184c-0.09,-0.031 0.012,0.243 0.024,0.266c0.047,0.094 -0.043,0.141 -0.098,0.039c-0.039,-0.078 -0.004,-0.235 -0.016,-0.238c-0.066,-0.043 -0.086,0.117 -0.07,0.168c0.063,0.152 -0.051,0.215 -0.07,0.152c-0.028,-0.062 -0.016,-0.137 -0.024,-0.191c-0.008,-0.126 -0.215,0.101 -0.258,0.14c-0.031,0.028 -0.141,0.012 -0.27,0c-0.242,-0.027 -0.559,-0.05 -0.559,0.184c-0,0.078 -0.059,0.305 -0.004,0.337c0.117,0.062 0.195,-0.063 0.297,-0.184c0.098,-0.121 0.219,-0.243 0.423,-0.184c0.039,0.004 0.293,0.098 0.293,0.098c0.07,-0.004 0.113,-0.004 0.145,-0c0.07,-0 0.066,0.004 0.23,-0.055c0.262,-0.086 0.223,-0.391 0.392,-0.462c0.074,-0.039 0.226,-0.109 0.285,-0.156c0.082,-0.066 0.196,0.02 0.196,0.055c-0,0.176 -0.102,0.125 -0.102,0.184c-0,0.074 0.196,0.043 0.242,0.039c0.227,-0.039 0.184,-0.446 0.169,-0.614c-0.024,-0.169 -0.039,-0.141 -0.137,-0.098c-0.055,0.019 -0.098,0.074 -0.133,0.117c-0.082,0.098 -0.122,0.157 -0.239,0.157c-0.113,-0 -0.023,-0.047 -0.023,-0.047c0.097,-0.028 0.199,-0.423 0.317,-0.403c0.226,0.043 0.187,-0.16 0.191,-0.297c0.004,-0.106 -0.059,-0.18 -0.113,-0.18c-0.02,-0 -0.035,0.011 -0.047,0.031Zm-13.662,1.69c0.669,0.739 1.908,0.316 3.183,0.007c1.792,-0.445 3.317,-1.067 3.626,-0.5c0.008,0.019 0.035,-0.164 -0.023,-0.348c-0.055,-0.184 -0.196,-0.368 -0.524,-0.348c-1.557,0.086 -5.253,2.163 -6.165,0.86c-0.34,-0.485 -0.109,-1.201 0.063,-1.338c-0.211,0.047 -0.727,1.045 -0.16,1.667Zm10.912,-0.188c-0.442,0.09 -0.465,0.059 -0.911,0.019c-0.164,-0.003 -0.364,-0.011 -0.509,0.008c-0.32,0.043 -0.34,0.313 0.411,0.325c0.02,-0 0.004,0.235 -0.012,0.395c-0.039,0.321 0.208,0.109 0.258,-0.188c0.02,-0.09 0.098,-0.234 0.149,-0.09c0.016,0.055 0.004,0.415 0.047,0.438c0.027,0.02 0.098,0 0.129,-0.074c0.07,-0.188 0.035,-0.52 0.364,-0.579c0.094,-0.016 0.184,-0.18 0.18,-0.262c-0,-0.004 -0.008,-0.004 -0.02,-0.004c-0.019,0 -0.051,0.004 -0.086,0.012Zm-3.794,1.447c-0.051,0.035 -0.164,0.082 -0.137,0.16c0.059,0.161 0.298,0.102 0.513,0.047c0.141,-0.035 0.273,-0.074 0.336,-0.047c0.008,0.004 0.043,0.016 0.082,0.032c0.082,0.031 0.098,0.047 0.184,0.043c0.246,-0.032 -0.043,-0.325 -0.059,-0.376c-0.023,-0.054 -0.09,-0.074 -0.176,-0.074c-0.238,-0 -0.645,0.16 -0.743,0.215Zm-7.357,2.186c0.039,0.02 0.336,0.231 0.352,0.231c0,-0.371 -0.411,-0.508 -0.113,-0.755c0.18,-0.148 0.426,-0.148 0.606,-0.148c0.121,0.004 0.215,0.004 0.242,-0.039c0.09,-0.137 -0.41,-0.188 -0.488,-0.188l-0.047,-0c-0.704,-0 -1.197,0.461 -0.552,0.899Zm0.481,0.079c-0.015,-0 -0.094,0.039 -0.07,0.082c0.141,0.36 0.45,1.005 0.34,1.451c-0.133,0.555 -0.598,0.95 -0.794,1.107c-0.055,0.051 -0.059,0.094 -0.059,0.094c0.286,-0.141 0.481,-0.235 0.685,-0.489c0.086,-0.102 0.023,0.015 0.164,0.031c0.501,0.051 0.653,-0.563 0.528,-1.205c-0.105,-0.485 -0.356,-1.075 -0.731,-1.075c-0.02,-0 -0.043,-0 -0.063,0.004Zm-2.202,1.924c0.008,0.211 -1.713,1.119 -2.163,1.119c-0.199,-0 -0.438,0.094 -0.481,0.297c-0.023,0.109 0.117,0.332 0.114,0.524c-0.004,0.297 0.003,1.287 0.379,1.369c0.195,0.043 -0.207,-0.364 0.004,-0.665c-0,0 0.102,-0.184 0.012,-0.098c-0.137,0.122 -0.208,0.485 -0.184,0.149c0.004,-0.098 0.238,-0.293 0.266,-0.462c0.027,-0.136 -0.071,-0.047 -0.153,0.04c-0.059,0.066 -0.113,0.129 -0.113,0.113c-0,-0.09 0.09,-0.196 0.156,-0.246c0.157,-0.11 0.153,-0.478 0.016,-0.278c-0.039,0.051 -0.215,0.434 -0.215,0.18c-0,-0.309 0.211,-0.215 0.246,-0.407c0.09,-0.415 -0.258,0.082 -0.258,0.086c-0.039,0.008 -0.059,0.051 -0.11,-0.07c-0.078,-0.188 0.18,-0.341 0.298,-0.341c0.008,-0.031 0.004,0 0.011,0.032c0.012,0.039 0.04,0.078 0.126,-0.016c0.226,-0.25 2.714,-0.696 2.233,-0.958c-0.012,-0.004 -0.176,-0.063 -0.141,-0.133c0.031,-0.063 0.082,-0.02 0.129,0.019c0.035,0.036 0.067,0.067 0.082,0.051c0.082,-0.086 0.051,-0.164 0,-0.231c-0.031,-0.058 -0.14,-0.176 -0.207,-0.176c-0.031,0 -0.051,0.028 -0.047,0.102Zm2.574,0.892c-0.071,0.015 -0.262,0.113 -0.204,0.211c0.016,0.031 0.157,0.016 0.196,0.012c0.133,-0.016 0.043,-0.094 0.019,-0.219c0,-0 -0.003,-0.008 -0.007,-0.008l-0.004,0.004Zm-0.442,0.168c-0.024,0.196 0.101,0.395 0.285,0.477c0.509,0.235 1.095,0.086 1.577,0.028c0.07,-0.012 0.176,-0.04 0.238,0.015c0.031,0.024 0.086,0.059 0.059,0.102c-0.012,0.023 -0.024,0.047 -0.055,0.047c-0.09,0.027 -0.297,0.019 -0.442,0.016c-0.074,-0.004 -0.129,-0.008 -0.137,-0.008c-0.039,0.019 -0.012,0.121 0.071,0.16c0.226,0.086 0.203,0.356 0.426,0.184c0.055,-0.051 0.219,-0.071 0.278,-0.012c0.176,0.192 0.062,-0.016 0.262,-0.059c0.054,-0.011 0.105,-0.203 -0.016,-0.289c-0.07,-0.055 -0.344,-0.227 -0.301,-0.336c-0,-0.004 0.141,-0.114 0.141,0.039c-0,0.164 0.133,0.066 0.156,-0.032c0.016,-0.074 -0.031,-0.148 -0.266,-0.101c-0.395,0.09 -0.704,0.426 -1.373,0.172c-0.406,-0.153 -0.097,-0.196 -0.434,-0.094c-0.375,0.113 -0.309,-0.434 -0.375,-0.458l-0.008,0c-0.047,0 -0.082,0.11 -0.086,0.149Zm0.313,0.258c0.015,0.098 0.336,-0.058 0.234,-0.145c-0.015,-0.015 -0.031,-0.019 -0.05,-0.019c-0.083,-0 -0.192,0.102 -0.184,0.164Zm-0.736,-0.027c-0.101,0.145 0.122,0.25 0.2,0.297c0.305,0.145 0.52,0.243 0.868,0.313c0.086,0.016 0.254,0.051 0.278,-0.067c0.027,-0.109 -0.004,-0.101 -0.067,-0.093c-0.019,-0 -0.043,0.004 -0.066,0.004c-0.376,-0.016 -0.595,-0.098 -0.927,-0.403c-0.059,-0.055 -0.121,-0.118 -0.184,-0.118c-0.035,0 -0.066,0.02 -0.102,0.067Zm1.557,0.5c-0.102,0.051 -0.254,0.18 -0.063,0.196c0.083,0.012 0.239,0.027 0.309,-0.02c0.036,-0.023 -0.05,-0.105 -0.109,-0.152c-0.031,-0.027 -0.047,-0.039 -0.07,-0.039c-0.016,-0 -0.036,0.004 -0.067,0.015Zm-4.838,0.063c-0.012,0.043 0.082,0.133 0.101,0.141c0.137,0.035 0.098,-0 0.13,-0.051c0.054,-0.09 -0.106,-0.102 -0.188,-0.102l-0.016,0c-0.008,0 -0.019,0 -0.027,0.012Zm-0.094,0.129c-0.035,0.031 -0,0.086 0.016,0.11c0.035,0.074 0.062,0.078 0.121,0.117c0.039,0.027 0.098,0.008 0.102,-0.016c0.003,-0.058 -0.004,-0.07 -0.04,-0.109c-0.035,-0.039 -0.156,-0.102 -0.199,-0.102Zm-0,0c-0.004,0 -0.004,0.004 -0,0Zm0.364,1.584c0.039,0.051 0.07,0.039 0.117,0.114c0.066,0.117 0.039,0.066 0.07,0.187c0.016,0.059 0.137,0.188 0.165,0.063c0.004,-0.008 0.086,-0.102 0.113,-0.102c0.102,0 0.176,-0.031 0.082,-0.129c-0.043,-0.043 -0.184,-0.18 -0.219,-0.211c-0.07,-0.059 -0.148,-0.082 -0.211,-0.082c-0.113,-0 -0.188,0.078 -0.117,0.16Zm0.399,-0.098c0.043,0.051 0.406,0.356 0.477,0.29c0.199,-0.2 -0.114,-0.297 -0.325,-0.325c-0.043,-0.004 -0.086,-0.012 -0.117,-0.012c-0.047,0 -0.067,0.012 -0.035,0.047Zm-0.72,0.043c-0,0.028 0.055,0.094 0.055,0.094c-0,0.004 0.027,0.039 0.039,0.043c0.117,0.106 0.07,0.106 0.105,0.212c0.012,0.039 0.212,0.035 0.212,0.023c0.023,-0 0.011,-0.078 0.019,-0.086c0.016,-0.051 -0.105,-0.16 -0.137,-0.168c-0.058,-0.035 -0.097,-0.055 -0.152,-0.094c-0.043,-0.031 -0.086,-0.039 -0.129,-0.047c-0.004,-0.004 -0.004,-0.004 -0.008,-0.004c-0.012,0 -0.004,0.023 -0.004,0.027Z"/></clipPath><g clip-path="url(#_clip2)"><path d="M22.94,9l-6.759,4.885l-8.057,-11.151l6.758,-4.885l8.058,11.151Z" style="fill:#fcf4a9;"/><path d="M16.224,13.854l-0.125,0.09l-8.057,-11.151l0.125,-0.09l8.057,11.151Z" style="fill:#fcf4a8;"/><path d="M16.142,13.912l-0.125,0.09l-8.058,-11.147l0.126,-0.09l8.057,11.147Z" style="fill:#fcf3a8;"/><path d="M16.056,13.975l-0.121,0.09l-8.058,-11.151l0.122,-0.09l8.057,11.151Z" style="fill:#fcf3a7;"/><path d="M15.974,14.034l-0.125,0.09l-8.058,-11.151l0.125,-0.09l8.058,11.151Z" style="fill:#fcf3a7;"/><path d="M15.892,14.092l-0.126,0.09l-8.057,-11.147l0.125,-0.09l8.058,11.147Z" style="fill:#fcf3a6;"/><path d="M15.809,14.155l-0.125,0.09l-8.057,-11.151l0.125,-0.09l8.057,11.151Z" style="fill:#fcf2a6;"/><path d="M15.727,14.214l-0.125,0.09l-8.057,-11.152l0.125,-0.089l8.057,11.151Z" style="fill:#fcf2a5;"/><path d="M15.641,14.272l-0.121,0.09l-8.057,-11.147l0.121,-0.09l8.057,11.147Z" style="fill:#fbf2a5;"/><path d="M15.559,14.335l-0.125,0.09l-8.057,-11.151l0.125,-0.09l8.057,11.151Z" style="fill:#fbf1a4;"/><path d="M15.477,14.394l-0.125,0.089l-8.057,-11.151l0.125,-0.09l8.057,11.152Z" style="fill:#fbf1a3;"/><path d="M15.395,14.452l-0.125,0.09l-8.058,-11.147l0.126,-0.09l8.057,11.147Z" style="fill:#fbf1a3;"/><path d="M15.313,14.515l-0.125,0.09l-8.058,-11.151l0.122,-0.09l8.061,11.151Z" style="fill:#fbf1a2;"/><path d="M15.227,14.573l-0.126,0.09l-8.057,-11.151l0.125,-0.09l8.058,11.151Z" style="fill:#fbf0a2;"/><path d="M15.144,14.632l-0.125,0.09l-8.057,-11.147l0.125,-0.09l8.057,11.147Z" style="fill:#fbf0a1;"/><path d="M15.062,14.695l-0.125,0.09l-8.057,-11.151l0.125,-0.09l8.057,11.151Z" style="fill:#fbf0a1;"/><path d="M14.98,14.753l-0.125,0.09l-8.057,-11.151l0.125,-0.09l8.057,11.151Z" style="fill:#fbf0a0;"/><path d="M14.894,14.812l-0.121,0.09l-8.057,-11.147l0.121,-0.09l8.057,11.147Z" style="fill:#fbefa0;"/><path d="M14.812,14.875l-0.125,0.09l-8.057,-11.151l0.125,-0.09l8.057,11.151Z" style="fill:#fbef9f;"/><path d="M14.73,14.933l-0.125,0.09l-8.058,-11.151l0.126,-0.09l8.057,11.151Z" style="fill:#fbef9e;"/><path d="M14.648,14.992l-0.125,0.09l-8.058,-11.147l0.126,-0.09l8.057,11.147Z" style="fill:#fbee9e;"/><path d="M14.566,15.055l-0.126,0.089l-8.057,-11.151l0.125,-0.09l8.058,11.152Z" style="fill:#fbee9d;"/><path d="M14.48,15.113l-0.122,0.09l-8.057,-11.151l0.121,-0.09l8.058,11.151Z" style="fill:#fbee9d;"/><path d="M14.397,15.172l-0.125,0.09l-8.057,-11.147l0.125,-0.09l8.057,11.147Z" style="fill:#fbee9c;"/><path d="M14.315,15.234l-0.125,0.09l-8.057,-11.151l0.125,-0.09l8.057,11.151Z" style="fill:#faed9c;"/><path d="M14.233,15.293l-0.125,0.09l-8.057,-11.151l0.125,-0.09l8.057,11.151Z" style="fill:#faed9b;"/><path d="M14.151,15.352l-0.125,0.09l-8.057,-11.147l0.125,-0.09l8.057,11.147Z" style="fill:#faed9b;"/><path d="M14.065,15.414l-0.121,0.09l-8.058,-11.151l0.122,-0.09l8.057,11.151Z" style="fill:#faec9a;"/><path d="M13.983,15.473l-0.125,0.09l-8.058,-11.151l0.126,-0.09l8.057,11.151Z" style="fill:#faec99;"/><path d="M13.901,15.532l-0.125,0.09l-8.058,-11.147l0.125,-0.09l8.058,11.147Z" style="fill:#faec99;"/><path d="M13.819,15.594l-0.126,0.09l-8.057,-11.151l0.125,-0.09l8.058,11.151Z" style="fill:#faec98;"/><path d="M13.736,15.653l-0.125,0.09l-8.057,-11.151l0.125,-0.09l8.057,11.151Z" style="fill:#faeb98;"/><path d="M13.65,15.712l-0.121,0.09l-8.057,-11.151l0.121,-0.087l8.057,11.148Z" style="fill:#faeb97;"/><path d="M13.568,15.77l-0.125,0.09l-8.057,-11.147l0.125,-0.09l8.057,11.147Z" style="fill:#faeb97;"/><path d="M13.486,15.833l-0.125,0.09l-8.057,-11.151l0.125,-0.09l8.057,11.151Z" style="fill:#faeb96;"/><path d="M13.404,15.892l-0.125,0.09l-8.057,-11.152l0.125,-0.09l8.057,11.152Z" style="fill:#faea96;"/><path d="M13.322,15.95l-0.125,0.09l-8.058,-11.147l0.122,-0.09l8.061,11.147Z" style="fill:#faea95;"/><path d="M13.236,16.013l-0.125,0.09l-8.058,-11.151l0.126,-0.09l8.057,11.151Z" style="fill:#faea94;"/><path d="M13.154,16.071l-0.126,0.09l-8.057,-11.151l0.125,-0.09l8.058,11.151Z" style="fill:#fae994;"/><path d="M13.072,16.13l-0.126,0.09l-8.057,-11.147l0.125,-0.09l8.058,11.147Z" style="fill:#fae993;"/><path d="M12.989,16.193l-0.125,0.09l-8.057,-11.151l0.125,-0.09l8.057,11.151Z" style="fill:#f9e993;"/><path d="M12.903,16.251l-0.121,0.09l-8.057,-11.151l0.121,-0.09l8.057,11.151Z" style="fill:#f9e992;"/><path d="M12.821,16.31l-0.125,0.09l-8.057,-11.147l0.125,-0.09l8.057,11.147Z" style="fill:#f9e892;"/><path d="M12.739,16.373l-0.125,0.09l-8.057,-11.151l0.125,-0.09l8.057,11.151Z" style="fill:#f9e891;"/><path d="M12.657,16.431l-0.125,0.09l-8.057,-11.151l0.125,-0.09l8.057,11.151Z" style="fill:#f9e891;"/><path d="M12.575,16.49l-0.125,0.09l-8.058,-11.147l0.126,-0.09l8.057,11.147Z" style="fill:#f9e790;"/><path d="M12.489,16.553l-0.122,0.09l-8.057,-11.152l0.121,-0.09l8.058,11.152Z" style="fill:#f9e78f;"/><path d="M12.407,16.611l-0.126,0.09l-8.057,-11.151l0.125,-0.09l8.058,11.151Z" style="fill:#f9e78f;"/><path d="M12.324,16.67l-0.125,0.09l-8.057,-11.147l0.125,-0.09l8.057,11.147Z" style="fill:#f9e78e;"/><path d="M12.242,16.732l-0.125,0.09l-8.057,-11.151l0.125,-0.09l8.057,11.151Z" style="fill:#f9e68e;"/><path d="M12.16,16.791l-0.125,0.09l-8.057,-11.151l0.125,-0.09l8.057,11.151Z" style="fill:#f9e68d;"/><path d="M12.074,16.85l-0.121,0.09l-8.057,-11.147l0.121,-0.09l8.057,11.147Z" style="fill:#f9e68d;"/><path d="M11.992,16.912l-0.125,0.09l-8.057,-11.151l0.125,-0.09l8.057,11.151Z" style="fill:#f9e68c;"/><path d="M11.91,16.971l-0.125,0.09l-8.058,-11.151l0.126,-0.09l8.057,11.151Z" style="fill:#f9e58b;"/><path d="M11.828,17.03l-0.125,0.09l-8.058,-11.147l0.125,-0.09l8.058,11.147Z" style="fill:#f9e58b;"/><path d="M11.746,17.092l-0.126,0.09l-8.057,-11.151l0.125,-0.09l8.058,11.151Z" style="fill:#f9e58a;"/><path d="M11.66,17.151l-0.122,0.09l-8.061,-11.151l0.125,-0.09l8.058,11.151Z" style="fill:#f8e48a;"/><path d="M11.577,17.21l-0.125,0.09l-8.057,-11.148l0.125,-0.09l8.057,11.148Z" style="fill:#f8e489;"/><path d="M11.495,17.272l-0.125,0.09l-8.057,-11.151l0.125,-0.09l8.057,11.151Z" style="fill:#f8e489;"/><path d="M11.413,17.331l-0.125,0.09l-8.057,-11.151l0.125,-0.09l8.057,11.151Z" style="fill:#f8e488;"/><path d="M11.327,17.39l-0.121,0.09l-8.057,-11.148l0.121,-0.09l8.057,11.148Z" style="fill:#f8e388;"/><path d="M11.245,17.452l-0.125,0.09l-8.057,-11.151l0.125,-0.09l8.057,11.151Z" style="fill:#f8e387;"/><path d="M11.163,17.511l-0.125,0.09l-8.058,-11.151l0.126,-0.09l8.057,11.151Z" style="fill:#f8e386;"/><path d="M11.081,17.569l-0.125,0.09l-8.058,-11.147l0.125,-0.09l8.058,11.147Z" style="fill:#f8e286;"/><path d="M10.999,17.632l-0.126,0.09l-8.057,-11.151l0.125,-0.09l8.058,11.151Z" style="fill:#f8e285;"/><path d="M10.912,17.691l-0.121,0.09l-8.057,-11.151l0.121,-0.09l8.057,11.151Z" style="fill:#f8e285;"/><path d="M10.83,17.749l-0.125,0.09l-8.057,-11.147l0.125,-0.09l8.057,11.147Z" style="fill:#f8e284;"/><path d="M10.748,17.812l-0.125,0.09l-8.057,-11.151l0.125,-0.09l8.057,11.151Z" style="fill:#f8e184;"/><path d="M10.666,17.871l-0.125,0.09l-8.057,-11.151l0.125,-0.09l8.057,11.151Z" style="fill:#f8e183;"/><path d="M10.584,17.929l-0.125,0.09l-8.057,-11.147l0.125,-0.09l8.057,11.147Z" style="fill:#f8e183;"/><path d="M10.498,17.992l-0.121,0.09l-8.058,-11.151l0.122,-0.09l8.057,11.151Z" style="fill:#f8e182;"/><path d="M10.416,18.051l-0.125,0.09l-8.058,-11.152l0.126,-0.089l8.057,11.151Z" style="fill:#f8e081;"/><path d="M10.334,18.109l-0.126,0.09l-8.057,-11.147l0.125,-0.09l8.058,11.147Z" style="fill:#f7e081;"/><path d="M10.251,18.172l-0.125,0.09l-8.057,-11.151l0.125,-0.09l8.057,11.151Z" style="fill:#f7e080;"/><path d="M10.169,18.23l-0.125,0.09l-8.057,-11.151l0.125,-0.09l8.057,11.151Z" style="fill:#f7df80;"/><path d="M10.083,18.289l-0.121,0.09l-8.057,-11.147l0.121,-0.09l8.057,11.147Z" style="fill:#f7df7f;"/><path d="M10.001,18.352l-0.125,0.09l-8.057,-11.151l0.125,-0.09l8.057,11.151Z" style="fill:#f7df7f;"/><path d="M9.919,18.41l-0.125,0.09l-8.057,-11.151l0.125,-0.09l8.057,11.151Z" style="fill:#f7df7e;"/><path d="M9.837,18.469l-0.125,0.09l-8.058,-11.147l0.126,-0.09l8.057,11.147Z" style="fill:#f7de7e;"/><path d="M9.755,18.532l-0.125,0.086l-8.058,-11.147l0.125,-0.09l8.058,11.151Z" style="fill:#f7de7d;"/><path d="M9.669,18.59l-0.122,0.09l-8.061,-11.151l0.125,-0.09l8.058,11.151Z" style="fill:#f6dd7c;"/><path d="M9.587,18.649l-0.126,0.09l-8.057,-11.151l0.125,-0.086l8.058,11.147Z" style="fill:#f5dc7b;"/><path d="M9.504,18.708l-0.125,0.09l-8.057,-11.148l0.125,-0.089l8.057,11.147Z" style="fill:#f5db7a;"/><path d="M9.422,18.77l-0.125,0.09l-8.057,-11.151l0.125,-0.09l8.057,11.151Z" style="fill:#f4d979;"/><path d="M9.336,18.829l-0.121,0.09l-8.057,-11.151l0.121,-0.09l8.057,11.151Z" style="fill:#f3d878;"/><path d="M9.254,18.888l-0.125,0.09l-8.057,-11.148l0.125,-0.09l8.057,11.148Z" style="fill:#f2d777;"/><path d="M9.172,18.95l-0.125,0.09l-8.057,-11.151l0.125,-0.09l8.057,11.151Z" style="fill:#f1d676;"/><path d="M9.09,19.009l-0.125,0.09l-8.058,-11.151l0.126,-0.09l8.057,11.151Z" style="fill:#f1d575;"/><path d="M9.008,19.068l-0.125,0.089l-8.058,-11.147l0.125,-0.09l8.058,11.148Z" style="fill:#f0d474;"/><path d="M8.922,19.13l-0.122,0.09l-8.057,-11.151l0.121,-0.09l8.058,11.151Z" style="fill:#efd373;"/><path d="M8.84,19.189l-0.126,0.09l-8.057,-11.151l0.125,-0.09l8.058,11.151Z" style="fill:#eed172;"/><path d="M8.757,19.247l-0.125,0.09l-8.057,-11.147l0.125,-0.09l8.057,11.147Z" style="fill:#edd071;"/><path d="M8.675,19.31l-0.125,0.09l-8.057,-11.151l0.125,-0.09l8.057,11.151Z" style="fill:#edcf70;"/><path d="M8.593,19.369l-0.125,0.09l-8.057,-11.151l0.125,-0.09l8.057,11.151Z" style="fill:#ecce6f;"/><path d="M8.507,19.427l-0.121,0.09l-8.057,-11.147l0.121,-0.09l8.057,11.147Z" style="fill:#ebcd6e;"/><path d="M8.425,19.49l-0.125,0.09l-8.058,-11.151l0.126,-0.09l8.057,11.151Z" style="fill:#eacc6d;"/><path d="M8.343,19.549l-0.125,0.09l-8.058,-11.152l0.126,-0.089l8.057,11.151Z" style="fill:#e9ca6c;"/><path d="M8.261,19.607l-0.126,0.09l-8.057,-11.147l0.125,-0.09l8.058,11.147Z" style="fill:#e8c96b;"/><path d="M8.178,19.67l-0.125,0.09l-8.057,-11.151l0.125,-0.09l8.057,11.151Z" style="fill:#e8c86a;"/><path d="M8.092,19.729l-0.121,0.089l-8.057,-11.151l0.121,-0.09l8.057,11.152Z" style="fill:#e7c769;"/><path d="M8.01,19.787l-0.125,0.09l-8.057,-11.147l0.125,-0.09l8.057,11.147Z" style="fill:#e6c668;"/><path d="M7.928,19.85l-0.125,0.09l-8.057,-11.151l0.125,-0.09l8.057,11.151Z" style="fill:#e5c567;"/><path d="M7.846,19.908l-0.125,0.09l-8.057,-11.151l0.125,-0.09l8.057,11.151Z" style="fill:#e4c466;"/><path d="M7.764,19.967l-0.125,0.09l-8.058,-11.147l0.122,-0.09l8.061,11.147Z" style="fill:#e4c265;"/><path d="M7.678,20.03l-0.125,0.09l-8.058,-11.151l0.126,-0.09l8.057,11.151Z" style="fill:#e3c164;"/><path d="M7.596,20.088l-0.125,0.09l-8.058,-11.151l0.125,-0.09l8.058,11.151Z" style="fill:#e2c063;"/><path d="M7.514,20.147l-0.126,0.09l-8.057,-11.147l0.125,-0.09l8.058,11.147Z" style="fill:#e1bf62;"/><path d="M7.431,20.21l-0.125,0.09l-8.057,-11.152l0.125,-0.089l8.057,11.151Z" style="fill:#e0be61;"/><path d="M7.345,20.268l-0.121,0.09l-8.057,-11.151l0.121,-0.09l8.057,11.151Z" style="fill:#e0bd60;"/><path d="M7.263,20.327l-0.125,0.09l-8.057,-11.147l0.125,-0.09l8.057,11.147Z" style="fill:#dfbb5f;"/><path d="M7.181,20.39l-0.125,0.089l-8.057,-11.151l0.125,-0.09l8.057,11.152Z" style="fill:#deba5e;"/><path d="M7.099,20.448l-0.125,0.09l-8.057,-11.151l0.125,-0.09l8.057,11.151Z" style="fill:#ddb95d;"/><path d="M7.017,20.507l-0.125,0.09l-8.058,-11.147l0.126,-0.09l8.057,11.147Z" style="fill:#dcb85b;"/><path d="M6.931,20.569l-0.121,0.09l-8.058,-11.151l0.122,-0.09l8.057,11.151Z" style="fill:#dcb75a;"/><path d="M6.849,20.628l-0.126,0.09l-8.057,-11.151l0.125,-0.09l8.058,11.151Z" style="fill:#dbb659;"/><path d="M6.767,20.687l-0.126,0.09l-8.057,-11.147l0.125,-0.09l8.058,11.147Z" style="fill:#dab558;"/><path d="M6.684,20.749l-0.125,0.09l-8.057,-11.151l0.125,-0.09l8.057,11.151Z" style="fill:#d9b357;"/><path d="M6.602,20.808l-0.125,0.09l-8.057,-11.151l0.125,-0.09l8.057,11.151Z" style="fill:#d8b256;"/><path d="M6.516,20.867l-0.121,0.09l-8.057,-11.148l0.121,-0.089l8.057,11.147Z" style="fill:#d7b155;"/><path d="M6.434,20.929l-0.125,0.09l-8.057,-11.151l0.125,-0.09l8.057,11.151Z" style="fill:#d7b054;"/><path d="M6.352,20.988l-0.125,0.09l-8.057,-11.151l0.125,-0.09l8.057,11.151Z" style="fill:#d6af53;"/><path d="M6.27,21.047l-0.125,0.09l-8.058,-11.148l0.126,-0.09l8.057,11.148Z" style="fill:#d5ae52;"/><path d="M6.188,21.109l-0.126,0.09l-8.057,-11.151l0.125,-0.09l8.058,11.151Z" style="fill:#d4ad51;"/><path d="M6.102,21.168l-0.122,0.09l-8.057,-11.151l0.121,-0.09l8.058,11.151Z" style="fill:#d3ab50;"/><path d="M6.019,21.227l-0.125,0.089l-8.057,-11.147l0.125,-0.09l8.057,11.148Z" style="fill:#d3aa4f;"/><path d="M5.937,21.289l-0.125,0.09l-8.057,-11.151l0.125,-0.09l8.057,11.151Z" style="fill:#d2a94e;"/><path d="M5.855,21.348l-0.125,0.09l-8.057,-11.151l0.125,-0.09l8.057,11.151Z" style="fill:#d1a84d;"/><path d="M5.773,21.406l-0.125,0.09l-8.057,-11.147l0.121,-0.09l8.061,11.147Z" style="fill:#d0a74c;"/><path d="M5.687,21.469l-0.125,0.086l-8.057,-11.147l0.125,-0.09l8.057,11.151Z" style="fill:#cfa64b;"/><path d="M5.605,21.528l-0.125,0.09l-8.058,-11.151l0.126,-0.09l8.057,11.151Z" style="fill:#cfa44a;"/><path d="M5.523,21.586l-0.125,0.09l-8.058,-11.151l0.125,-0.086l8.058,11.147Z" style="fill:#cea349;"/><path d="M5.441,21.645l-0.126,0.09l-8.057,-11.147l0.125,-0.09l8.058,11.147Z" style="fill:#cda248;"/><path d="M5.355,21.708l0.023,-0.02l-8.057,-11.147l-0.024,0.016l8.058,11.151Z" style="fill:#cca147;"/></g></g></svg>